<?xml version="1.0" encoding="utf-8" ?>
<svg xmlns="http://www.w3.org/2000/svg" xmlns:xlink="http://www.w3.org/1999/xlink" width="625" height="125">
	<path fill="#FCFBFC" d="M36.7408 19.2418C36.9171 19.2313 37.0901 19.2289 37.2667 19.2372C38.6245 19.3008 40.1208 19.7281 41.0472 20.7755C41.7275 21.5448 42.0052 22.568 41.9279 23.5806C41.7689 25.6645 40.6604 26.8203 39.1634 28.0972L38.678 32.9778C43.6336 32.8622 49.3045 32.2212 53.834 34.6313C58.2 36.9544 60.0788 40.7257 61.459 45.2538C63.136 46.2 64.4153 47.0353 65.7326 48.4438C66.2401 50.5109 66.7326 52.8343 65.9941 54.9036C65.1502 57.2684 63.352 58.2375 61.2349 59.2564C59.5954 62.6198 58.0933 64.2282 54.9063 66.1951C56.5125 68.6136 57.8814 69.6097 60.1603 71.3097C63.7422 73.9817 64.3356 76.6568 64.9416 80.8475C66.1329 81.5868 67.4666 82.33 68.0868 83.651C68.6578 84.8674 68.5436 86.4642 68.0647 87.6887C67.7625 88.4615 67.4261 88.7836 66.6858 89.1026C64.3675 88.2213 66.6562 86.3603 65.6375 84.6996C65.3524 84.2349 64.5767 83.8016 64.0508 83.6922C63.5366 83.5852 62.7341 83.7217 62.2982 84.0301C60.7638 85.1159 61.6368 87.2288 61.3289 88.7905L60.7876 89.0296C59.9341 88.7799 59.4747 88.5295 58.8834 87.86C58.6604 87.3494 58.5196 86.863 58.5817 86.3007C58.8722 83.673 60.5655 81.9808 62.5048 80.4031C62.2757 79.3443 62.0581 78.2621 61.7314 77.2288C60.8114 74.3192 59.1877 73.1132 56.6151 71.7839Q56.8392 78.0451 56.4066 84.2953C54.5967 87.2546 52.9006 88.2102 49.6674 89.2751C49.5196 91.5062 49.6806 93.7394 49.798 95.9686C51.5083 96.8678 52.8677 98.0419 53.817 99.7588C54.194 100.441 54.1022 100.841 53.9027 101.559C53.5354 102 53.1508 102.313 52.6103 102.519C50.1403 103.459 44.7097 103.446 42.3009 102.347C41.2221 100.243 41.9967 91.8897 41.9573 88.9694L38.1399 89.0643L33.1764 89.0173C33.2644 92.7421 33.7942 97.1002 33.2873 100.765C33.216 101.281 33.188 101.896 32.7218 102.213C30.9509 103.415 25.4798 103.287 23.4503 102.83C22.4821 102.612 21.883 102.299 21.3488 101.451C21.0917 100.375 21.358 99.5908 21.8283 98.6133C22.618 96.9717 23.8003 96.6779 25.4062 96.1149C25.3604 93.824 25.3962 91.5589 25.4891 89.2699C23.6371 88.7793 21.8009 88.2131 20.4493 86.7702C17.1799 83.2804 18.3125 76.2757 18.4457 71.8123C16.0076 73.127 14.1499 74.6298 13.2886 77.3753C12.3016 80.5214 14.7693 82.0439 16.03 84.5326C16.4724 85.4061 16.5952 86.3104 16.2728 87.2474C16.0075 88.0182 15.5212 88.8518 14.7542 89.1972C14.5309 89.2976 14.2614 89.1247 14.0361 89.0419C13.2912 87.9213 13.5995 86.8173 13.7301 85.5484C13.5002 84.8581 13.2349 84.4394 12.6198 84.0345C11.858 83.533 11.2192 83.3946 10.3498 83.5692C8.84435 84.7472 9.63098 87.4446 8.90329 89.0862L8.38127 89.1494C7.81082 88.6805 7.21313 88.1745 6.89563 87.4923C6.40951 86.4478 6.51079 84.9609 6.89134 83.8965C7.48916 82.2246 8.67428 81.7447 10.1679 81.0299C11.1021 69.2608 16.0675 73.4346 19.1535 67.6642C19.2931 67.4033 19.5928 66.75 19.5814 66.4508C19.5552 65.7641 17.2396 64.5416 16.6967 63.9154C15.4922 62.5263 14.7994 60.6492 13.542 59.3247C11.8475 57.5399 9.84859 57.4054 9.08003 54.7303C8.31231 52.0581 8.83145 49.6111 10.1388 47.2457C11.2862 46.4874 12.5923 45.8998 13.8134 45.2653C14.4086 42.1342 15.5129 39.4297 17.7848 37.1255C22.3593 32.4861 28.1782 33.1815 34.1081 33.0804C34.8476 33.0678 35.6323 32.9276 36.1628 32.3764C36.7159 31.2431 36.4589 29.7242 36.3949 28.4957C35.1184 27.456 33.9474 26.4814 33.4263 24.8619C33.0561 23.7113 32.9748 22.6214 33.5546 21.5296C34.2705 20.1815 35.336 19.6752 36.7408 19.2418ZM48.9044 64.0213C51.6834 64.0033 54.5086 63.7861 56.5714 61.679C59.2341 58.9591 59.0339 54.7529 58.9667 51.2295C58.8747 46.4022 58.3909 41.7015 54.7051 38.1679C53.6249 37.1323 52.4816 36.4967 51.044 36.1063C45.3097 34.5491 33.4752 35.5488 27.0522 35.489C23.4106 36.2794 20.4516 37.3624 18.3536 40.6118Q17.6913 41.6579 17.2374 42.8095Q16.7834 43.9611 16.5538 45.1774C16.0249 47.9454 16.0178 55.6859 16.5951 58.4103C16.9377 60.0271 17.6939 61.5546 19.1214 62.4626C20.468 63.3191 22.0554 63.7227 23.6228 63.9268C26.5565 64.3088 29.7058 64.0912 32.672 64.0838L48.9044 64.0213ZM44.972 86.4357C46.985 86.4552 51.1856 86.9484 52.6729 85.4559C54.7956 83.3255 54.1508 76.0892 54.0885 73.1446C54.0476 71.2084 54.0058 68.8296 52.5734 67.3582C49.1234 65.7481 33.7122 66.5581 29.0989 66.6279C27.0565 66.6526 23.6409 66.271 22.1173 67.8201C20.2867 69.6815 20.8573 78.3553 20.923 81.1927C20.953 82.4858 21.0244 83.9372 22.0196 84.8818C22.8298 85.6507 24.0455 86.065 25.126 86.2516C29.9186 87.0794 39.6712 86.3736 44.972 86.4357ZM30.5647 96.5497C30.6358 94.6587 31.3359 90.5841 30.0286 89.1954C29.8296 88.984 28.976 88.9583 28.6778 88.9544Q28.308 88.9502 27.9382 88.9549C27.8214 90.653 27.1056 94.6885 28.2328 95.9644C28.7542 96.5546 29.8088 96.477 30.5647 96.5497ZM47.1128 96.3471C47.3221 94.1291 47.9588 91.4001 46.873 89.3683C46.065 88.8422 45.5203 88.9818 44.5689 88.9855C44.543 90.5112 43.9459 95.1278 45.033 96.2258C45.2439 96.4388 45.7624 96.4868 46.0677 96.4865C46.4106 96.4861 46.776 96.4088 47.1128 96.3471ZM13.0243 56.25L13.7644 56.2829C14.4018 54.9371 14.3648 50.2115 13.8784 48.7605C13.8108 48.559 13.7068 48.3755 13.5895 48.1993L12.9633 48.0377C11.733 49.0652 11.2145 49.9359 11.0727 51.5538C10.9659 52.7733 11.3448 54.3747 12.1419 55.3221C12.4151 55.6468 12.7199 55.9544 13.0243 56.25ZM62.9104 55.8522C63.769 54.0993 64.3979 52.0552 63.7185 50.1246C63.4026 49.227 62.9795 48.6314 62.1132 48.2204Q61.7839 48.0662 61.4443 47.9362C61.3465 49.4506 60.5383 54.6954 61.5615 55.9025C61.6181 55.9693 61.6184 55.9657 61.6894 56.0347C62.0952 55.9892 62.5169 55.9625 62.9104 55.8522Z"/>
	<path fill="#FCFBFC" d="M46.4925 48.1123Q46.6373 48.0741 46.785 48.0498Q46.9327 48.0255 47.0821 48.0154Q47.2315 48.0054 47.3812 48.0096Q47.5309 48.0138 47.6794 48.0322Q47.828 48.0507 47.9742 48.0832Q48.1203 48.1157 48.2627 48.162Q48.4051 48.2084 48.5424 48.268Q48.6797 48.3277 48.8106 48.4002Q48.9416 48.4727 49.0651 48.5573Q49.1885 48.6419 49.3033 48.738Q49.4181 48.834 49.5232 48.9405Q49.6284 49.047 49.7228 49.1631Q49.8173 49.2791 49.9002 49.4037Q49.9832 49.5282 50.0539 49.66Q50.1245 49.7919 50.1823 49.9299Q50.2401 50.0679 50.2844 50.2108Q50.3287 50.3537 50.3592 50.5001Q50.3897 50.6466 50.406 50.7953Q50.4223 50.9439 50.4244 51.0935Q50.4265 51.2431 50.4143 51.3921Q50.4021 51.5412 50.3757 51.6885Q50.3493 51.8357 50.3089 51.9797Q50.2686 52.1238 50.2147 52.2633Q50.1608 52.4029 50.0938 52.5367Q50.0268 52.6704 49.9473 52.7972Q49.8679 52.924 49.7767 53.0426Q49.6855 53.1612 49.5833 53.2706Q49.4812 53.38 49.3691 53.4792Q49.257 53.5783 49.136 53.6664Q49.0149 53.7544 48.886 53.8305Q48.7571 53.9066 48.6215 53.97Q48.4859 54.0335 48.3449 54.0837Q48.1464 54.1544 47.9402 54.1979Q47.734 54.2414 47.5238 54.2569Q47.3136 54.2724 47.1032 54.2597Q46.8928 54.2469 46.6861 54.2061Q46.4793 54.1653 46.2799 54.0971Q46.0805 54.029 45.892 53.9348Q45.7035 53.8406 45.5293 53.722Q45.3552 53.6034 45.1985 53.4626Q45.0418 53.3218 44.9054 53.1612Q44.7691 53.0007 44.6554 52.8234Q44.5418 52.646 44.453 52.4551Q44.3642 52.2641 44.3018 52.063Q44.2394 51.8619 44.2046 51.6542Q44.1697 51.4466 44.163 51.2361Q44.1563 51.0257 44.1779 50.8162Q44.1995 50.6068 44.249 50.4021Q44.2985 50.1974 44.375 50.0012Q44.4515 49.805 44.5537 49.6209Q44.6558 49.4367 44.7817 49.2678Q44.9076 49.099 45.0551 48.9485Q45.2025 48.798 45.3688 48.6686Q45.535 48.5393 45.7172 48.4333Q45.8993 48.3274 46.094 48.2467Q46.2887 48.1661 46.4925 48.1123Z"/>
	<path fill="#FCFBFC" d="M27.0406 48.0809Q27.2369 48.0186 27.4397 47.9826Q27.6425 47.9467 27.8483 47.9378Q28.0541 47.9289 28.2592 47.9473Q28.4644 47.9656 28.6653 48.0108Q28.8663 48.056 29.0595 48.1272Q29.2527 48.1985 29.4348 48.2946Q29.6169 48.3908 29.7848 48.5101Q29.9526 48.6293 30.1032 48.7697Q30.2538 48.9101 30.3846 49.069Q30.5154 49.228 30.624 49.4029Q30.7326 49.5777 30.8172 49.7653Q30.9018 49.9529 30.9609 50.1501Q31.02 50.3472 31.0525 50.5504Q31.085 50.7536 31.0904 50.9593Q31.0958 51.165 31.074 51.3696Q31.0522 51.5742 31.0036 51.7742Q30.955 51.9741 30.8804 52.1659Q30.8057 52.3577 30.7065 52.538Q30.6072 52.7183 30.4849 52.8839Q30.3627 53.0495 30.2197 53.1976Q30.0767 53.3457 29.9153 53.4736Q29.754 53.6015 29.5772 53.7071Q29.4004 53.8126 29.2112 53.8939Q29.022 53.9752 28.8237 54.0309Q28.6782 54.0717 28.5295 54.0983Q28.3808 54.1249 28.2302 54.1369Q28.0796 54.1489 27.9285 54.1463Q27.7775 54.1437 27.6274 54.1264Q27.4773 54.1092 27.3295 54.0775Q27.1818 54.0458 27.0379 53.9999Q26.8939 53.954 26.7551 53.8944Q26.6163 53.8348 26.4839 53.7621Q26.3516 53.6893 26.2269 53.6041Q26.1022 53.5189 25.9864 53.4219Q25.8705 53.325 25.7647 53.2174Q25.6588 53.1097 25.5639 52.9922Q25.4689 52.8748 25.3858 52.7488Q25.3028 52.6227 25.2323 52.4892Q25.1619 52.3556 25.1047 52.2159Q25.0475 52.0762 25.0042 51.9316Q24.9609 51.787 24.9318 51.6389Q24.9027 51.4908 24.8881 51.3405Q24.8735 51.1903 24.8736 51.0394Q24.8737 50.8884 24.8884 50.7382Q24.9031 50.588 24.9323 50.4399Q24.9616 50.2918 25.005 50.1473Q25.0485 50.0027 25.1058 49.8631Q25.1631 49.7234 25.2337 49.5899Q25.3042 49.4565 25.3874 49.3305Q25.4706 49.2045 25.5657 49.0872Q25.6607 48.9698 25.7667 48.8623Q25.8726 48.7547 25.9886 48.6579Q26.1045 48.5611 26.2292 48.4759Q26.354 48.3908 26.4864 48.3182Q26.6189 48.2456 26.7578 48.1861Q26.8966 48.1266 27.0406 48.0809Z"/>
	<path fill="#FCFBFC" d="M32.4615 53.8451C34.3431 53.8656 35.6025 55.8254 37.5496 55.8574C39.3137 55.8864 40.54 53.9323 42.2248 53.9649L42.553 54.3606L42.4376 55.5886C41.2072 57.1237 39.8518 57.7908 38.083 58.5279C36.6707 58.1997 34.8971 57.89 33.7708 56.9396C32.7909 56.1128 32.5616 55.0664 32.4615 53.8451Z"/>
	<path fill="#FCFBFC" d="M31.1837 72.9683Q31.3426 72.9078 31.5083 72.869Q31.6739 72.8303 31.8432 72.8141Q32.0125 72.7979 32.1825 72.8046Q32.3525 72.8112 32.52 72.8405Q32.6876 72.8698 32.8497 72.9213Q33.0118 72.9727 33.1655 73.0454Q33.3193 73.1181 33.4619 73.2108Q33.6045 73.3034 33.7334 73.4143Q33.8623 73.5252 33.9752 73.6523Q34.088 73.7795 34.1828 73.9206Q34.2776 74.0617 34.3526 74.2142Q34.4276 74.3668 34.4815 74.528Q34.5353 74.6891 34.5671 74.8561Q34.5989 75.023 34.608 75.1927Q34.6171 75.3624 34.6033 75.5318Q34.5896 75.7012 34.5532 75.8672Q34.5169 76.0332 34.4586 76.1929Q34.4003 76.3525 34.3211 76.5029Q34.2419 76.6533 34.1433 76.7918Q34.0447 76.9302 33.9284 77.0543Q33.812 77.1783 33.6801 77.2856Q33.5482 77.3929 33.4031 77.4816Q33.258 77.5703 33.1024 77.6387Q32.9467 77.7072 32.7832 77.7542Q32.6671 77.7876 32.5483 77.8098Q32.4295 77.8319 32.3091 77.8427Q32.1888 77.8534 32.0679 77.8527Q31.9471 77.8519 31.8269 77.8396Q31.7067 77.8273 31.5882 77.8036Q31.4697 77.7799 31.354 77.7451Q31.2383 77.7102 31.1265 77.6645Q31.0146 77.6187 30.9077 77.5625Q30.8007 77.5063 30.6996 77.4402Q30.5985 77.3741 30.5042 77.2986Q30.4099 77.2232 30.3232 77.1391Q30.2365 77.0549 30.1582 76.963Q30.08 76.871 30.0109 76.7719Q29.9417 76.6729 29.8824 76.5677Q29.823 76.4626 29.774 76.3523Q29.725 76.2419 29.6867 76.1274Q29.6484 76.0129 29.6213 75.8953Q29.5941 75.7776 29.5783 75.6579Q29.5625 75.5382 29.5582 75.4176Q29.5539 75.2969 29.5611 75.1764Q29.5684 75.0559 29.5871 74.9366Q29.6058 74.8174 29.6358 74.7004Q29.6658 74.5835 29.7069 74.4699Q29.7479 74.3564 29.7996 74.2473Q29.8513 74.1382 29.9132 74.0345Q29.9751 73.9308 30.0466 73.8334Q30.1182 73.7361 30.1986 73.6461Q30.2791 73.556 30.3678 73.474Q30.4565 73.3921 30.5527 73.3189Q30.6488 73.2458 30.7515 73.1821Q30.8542 73.1184 30.9625 73.0649Q31.0708 73.0113 31.1837 72.9683Z"/>
	<path fill="#FCFBFC" d="M42.1639 72.998Q42.2807 72.957 42.4009 72.9276Q42.5212 72.8983 42.6437 72.8809Q42.7663 72.8634 42.89 72.8581Q43.0136 72.8528 43.1372 72.8597Q43.2608 72.8665 43.3832 72.8855Q43.5055 72.9044 43.6254 72.9353Q43.7453 72.9661 43.8615 73.0086Q43.9778 73.051 44.0893 73.1047Q44.2008 73.1583 44.3066 73.2227Q44.4123 73.287 44.5112 73.3614Q44.61 73.4358 44.7011 73.5196Q44.7922 73.6033 44.8746 73.6956Q44.957 73.7879 45.03 73.8878Q45.1029 73.9877 45.1657 74.0943Q45.2285 74.2009 45.2805 74.3131Q45.3325 74.4253 45.3732 74.5421Q45.4139 74.6589 45.4429 74.7791Q45.472 74.8993 45.4891 75.0218Q45.5061 75.1443 45.5111 75.2678Q45.5161 75.3914 45.5089 75.5149Q45.5016 75.6383 45.4823 75.7605Q45.463 75.8826 45.4318 76.0023Q45.4006 76.122 45.3577 76.238Q45.3149 76.354 45.2609 76.4653Q45.2068 76.5766 45.1421 76.682Q45.0774 76.7874 45.0027 76.886Q44.9279 76.9845 44.8438 77.0753Q44.7598 77.1661 44.6672 77.2481Q44.5746 77.3302 44.4743 77.4028Q44.3741 77.4754 44.2673 77.5378Q44.1604 77.6002 44.0479 77.6518Q43.9354 77.7035 43.8184 77.7438Q43.7018 77.784 43.5818 77.8126Q43.4619 77.8412 43.3397 77.8579Q43.2175 77.8747 43.0942 77.8794Q42.971 77.8841 42.8479 77.8768Q42.7248 77.8694 42.603 77.8501Q42.4811 77.8307 42.3618 77.7996Q42.2425 77.7684 42.1268 77.7257Q42.0111 77.683 41.9001 77.6293Q41.7891 77.5755 41.684 77.5111Q41.5788 77.4467 41.4804 77.3724Q41.3821 77.2981 41.2915 77.2145Q41.2009 77.1309 41.1189 77.0388Q41.0369 76.9468 40.9643 76.8471Q40.8917 76.7475 40.8293 76.6413Q40.7668 76.535 40.715 76.4232Q40.6633 76.3114 40.6227 76.195Q40.5821 76.0786 40.5532 75.9589Q40.5242 75.8391 40.5071 75.7171Q40.49 75.595 40.4849 75.4719Q40.4798 75.3488 40.4868 75.2258Q40.4938 75.1028 40.5128 74.981Q40.5319 74.8593 40.5627 74.74Q40.5936 74.6207 40.636 74.505Q40.6783 74.3893 40.7319 74.2783Q40.7854 74.1673 40.8495 74.062Q40.9136 73.9567 40.9878 73.8583Q41.0619 73.7598 41.1453 73.669Q41.2288 73.5783 41.3207 73.4961Q41.4126 73.4139 41.5121 73.3411Q41.6116 73.2684 41.7178 73.2057Q41.8239 73.1429 41.9357 73.0909Q42.0475 73.0389 42.1639 72.998Z"/>
	<path fill="#8B52FE" d="M553.352 39.1768Q553.456 39.1707 553.561 39.1678C557.911 39.0382 562.694 40.1584 565.916 43.2225C568.982 46.1378 569.975 50.0105 570.079 54.1208C570.22 59.7335 570.764 72.4609 569.493 77.4168Q569.287 78.2454 568.976 79.0407Q568.665 79.8361 568.255 80.5851Q567.845 81.3342 567.342 82.0246Q566.839 82.715 566.252 83.3354C563.184 86.5456 558.748 87.7324 554.428 87.8338C550.879 87.9196 546.838 86.8986 543.985 84.729C540.882 82.3684 539.217 78.7455 538.701 74.9481C538.045 70.1224 537.958 55.2367 538.885 50.6464C539.318 48.505 540.129 46.4594 541.464 44.7156C544.452 40.8116 548.727 39.7935 553.352 39.1768ZM555.762 80.2083C557.652 79.8554 559.165 79.2616 560.312 77.6126C562.16 74.9564 561.953 55.3945 561.201 51.4349C560.902 49.8541 560.203 48.7453 558.847 47.8371C556.812 46.4737 554.147 46.3975 551.801 46.7987C550.032 47.6898 548.421 48.5988 547.771 50.6111C546.489 54.5768 546.335 73.3494 548.199 76.9227C548.943 78.3476 550.121 79.6029 551.696 80.0721C552.635 80.3516 554.833 80.6213 555.762 80.2083Z"/>
	<path fill="#8B52FE" d="M474.564 39.1768C478.904 39.0234 483.684 39.9307 487.028 42.8748C490.138 45.6119 491.437 49.4769 491.686 53.5127C491.898 56.9567 491.757 60.484 491.749 63.9358C491.735 70.3123 492.635 77.8932 488.062 83.0459C485.161 86.3142 480.844 87.56 476.608 87.8091C473.005 88.0868 468.683 87.0576 465.754 84.9048C462.635 82.6129 460.932 79.2421 460.359 75.4739C459.765 71.5581 459.729 54.6306 460.435 50.7054C460.814 48.594 461.564 46.6059 462.85 44.8757C465.782 40.934 469.935 39.8624 474.564 39.1768ZM477.354 80.1959C479.316 79.8327 480.74 79.1293 481.887 77.4453C483.967 74.3928 483.502 55.4253 482.739 51.5563C482.409 49.8778 481.674 48.7064 480.224 47.7431C478.156 46.3688 475.8 46.5 473.459 46.7986C471.563 47.7306 469.94 48.6131 469.194 50.7438C468.302 53.2913 468.247 74.5191 469.406 76.8513C470.157 78.3637 471.734 79.5083 473.313 80.0368C474.308 80.3699 476.371 80.611 477.354 80.1959Z"/>
	<path fill="#8B52FE" d="M499.903 39.7863C499.937 39.7786 499.97 39.7705 500.004 39.7632C502.838 39.1462 516.181 39.6621 519.194 40.2067C521.402 40.6059 523.686 41.2954 525.586 42.5174C528.066 44.1129 529.855 46.5392 530.47 49.4366C531.076 52.2868 530.641 55.4176 529.036 57.8763C527.191 60.7044 524.586 61.8143 521.397 62.4927C523.39 62.7836 525.298 63.3002 526.979 64.447C529.378 66.0838 531.055 68.5349 531.57 71.4081C531.927 73.3958 531.629 76.3807 530.454 78.0531C530.49 78.1846 530.52 78.3208 530.521 78.458C530.529 79.6182 529.022 81.9891 528.204 82.8294C522.534 88.6527 507.303 87.1033 499.502 87.2354C499.792 86.8039 500.028 86.2715 500.072 85.7495C500.701 78.181 500.179 68.6221 500.178 60.7695C500.177 55.3848 500.771 44.6277 499.903 39.7863ZM508.632 66.311C508.347 69.5599 509.416 77.6931 508.215 80.1995C510.563 80.154 518.383 80.6652 520.011 78.8802C520.115 78.7666 520.192 78.653 520.238 78.5061C521.493 77.7747 522.251 76.6615 522.629 75.2625C523.12 73.4455 522.927 70.994 521.964 69.3559C521.114 67.9123 519.673 67.1177 518.084 66.7286C515.089 65.9954 511.704 66.4935 508.632 66.311ZM508.362 59.3054C510.806 59.2786 517.614 59.8583 519.421 58.066C519.507 57.9799 519.591 57.89 519.635 57.7746C520.826 57.0187 521.56 55.9724 521.868 54.5874C521.987 54.0494 521.925 53.5658 521.782 53.0407C522.085 51.9491 521.874 50.9162 521.317 49.9347C520.871 49.1511 520.143 48.4521 519.396 47.9499C516.386 46.6387 511.427 46.3952 508.278 47.1034C509.029 48.7626 508.915 57.385 508.362 59.3054Z"/>
	<path fill="#8B52FE" d="M421.738 39.7865C426.126 39.1286 439.458 39.5208 443.519 40.8581C446.978 41.9975 450.055 44.0951 451.719 47.4157C453.428 50.8278 453.539 55.4335 452.334 59.0216C450.959 63.1189 448.058 65.3556 444.321 67.2121C445.514 68.8699 453.748 85.5921 453.656 87.005C451.091 86.9878 448.563 87.4086 445.988 87.2117C444.632 87.108 444.36 86.8147 443.512 85.8242Q443.561 85.6105 443.574 85.3915C443.638 84.175 436.8 69.6183 435.752 68.3556C433.807 68.5858 431.782 68.4171 429.827 68.3501C430.015 68.6726 430.146 69.0105 430.22 69.3765C430.504 70.7819 430.746 86.3007 430.217 87.0935C427.247 86.8293 424.009 87.1291 421.014 87.1747C422.16 85.2819 421.531 54.853 421.513 50.0984C421.501 46.9114 420.992 42.8549 421.738 39.7865ZM429.897 61.5723C433.231 61.4377 439.275 62.3406 441.944 60.0347L442.143 59.6037C443.321 58.931 443.974 57.5889 444.319 56.319Q444.418 55.9447 444.48 55.5625Q444.542 55.1803 444.566 54.7939Q444.59 54.4075 444.576 54.0206Q444.563 53.6337 444.511 53.2499Q444.46 52.8662 444.372 52.4893Q444.283 52.1124 444.158 51.7459Q444.033 51.3794 443.873 51.0268Q443.713 50.6743 443.519 50.339C442.595 48.77 441.289 47.8381 439.537 47.4016C436.714 46.6979 432.992 46.7606 430.099 47.1035C430.735 49.2631 430.882 59.4201 429.897 61.5723Z"/>
	<path fill="#FCFBFC" d="M158.968 50.4568C163.747 49.9178 169.021 50.6857 172.888 53.7438C175.929 56.1485 177.417 59.6578 177.84 63.4379C178.496 69.2905 178.685 77.64 174.824 82.4289C172.254 85.6162 168.316 87.2238 164.325 87.6537C164.26 87.6792 164.193 87.704 164.125 87.7201C160.832 88.5035 155.813 87.1157 152.963 85.4455C149.81 83.5978 147.753 80.6443 146.851 77.1303C145.535 72.0078 145.529 61.8057 148.272 57.2019C150.699 53.1274 154.562 51.5777 158.968 50.4568ZM163.342 80.2998C165.131 80.0274 166.73 79.4821 167.862 77.9728C169.853 75.318 169.673 66.8975 169.169 63.5655C168.9 61.7893 168.217 60.0197 166.731 58.9163C164.958 57.5986 162.301 57.4599 160.185 57.7733C158.106 58.5207 156.788 59.1535 155.802 61.2724C154.308 64.4833 154.204 72.768 155.469 76.16C156.04 77.6936 157.164 79.1598 158.688 79.8406C159.726 80.3046 162.226 80.681 163.342 80.2998Z"/>
	<path fill="#FCFBFC" d="M315.647 50.4572C319.498 50.0888 323.792 50.3513 327.365 51.9608C330.058 53.1736 332.188 55.2528 333.234 58.0371C333.736 59.3739 333.964 60.7773 334.072 62.1964C334.338 65.6917 334.502 85.4035 333.718 87.1145L325.567 87.0714C325.65 86.9436 325.721 86.8113 325.784 86.6726C326.509 85.0865 326.082 81.4569 325.475 79.8791Q325.488 79.9688 325.498 80.0588C325.652 81.4278 324.995 82.7858 324.154 83.8336C322.254 86.2003 318.932 87.4249 315.985 87.7496C311.344 88.2609 308.172 86.6758 304.646 83.8498C304.441 81.5187 302.524 79.7113 302.59 76.8581C302.657 73.9481 303.661 71.1434 305.801 69.1066C310.839 64.3108 319.073 65.1238 325.46 65.2768C325.512 65.174 325.555 65.0703 325.587 64.9591C325.944 63.7208 325.757 61.2828 325.114 60.1703C324.241 58.6585 322.79 57.6942 321.118 57.253C316.417 56.013 314.501 58.5412 310.938 60.6023C309.389 60.786 306.06 61.2423 304.634 60.7874C304.101 60.6177 304.118 60.4649 303.875 59.9829C303.933 59.0873 304.234 58.386 304.685 57.6162C307.447 52.8933 310.657 51.7771 315.647 50.4572ZM313.224 80.3272C315.927 81.2738 319.169 81.5223 321.819 80.2535C323.508 79.4448 324.706 78.072 325.318 76.3095C325.774 74.9941 325.959 72.4623 325.308 71.1344C325.258 71.0322 325.199 70.9354 325.137 70.8401L323.889 70.8843C320.309 71.0198 314.398 70.2211 311.707 73.063C311.144 73.6571 310.838 74.4039 310.88 75.2253C310.972 77.0354 311.966 79.0582 313.224 80.3272Z"/>
	<path fill="#FCFBFC" d="M201.508 50.457C204.447 50.1227 207.504 50.3309 210.171 51.7233C212.905 53.151 214.633 55.5688 215.53 58.4683C216.044 60.1295 216.267 61.8416 216.385 63.5715C216.579 66.4331 216.879 85.7911 216.213 87.0586Q211.902 87.1638 207.591 87.0811C207.622 87.0188 207.635 86.9985 207.658 86.9384C208.086 85.8184 207.924 67.2708 207.702 64.6217C207.594 63.3266 207.36 62.0325 206.815 60.8436C206.193 59.4892 205.169 58.3692 203.744 57.8585C201.327 56.9921 198.82 58.0062 196.651 59.0486C196.139 59.896 195.59 60.789 195.346 61.7569C194.108 66.6684 195.049 76.188 195.048 81.5818C195.047 83.3381 195.223 85.4161 194.655 87.09Q190.252 87.1956 185.852 87.0118C185.861 86.9936 185.871 86.9757 185.88 86.9571C185.894 86.9263 185.906 86.8945 185.92 86.8638C185.946 86.8085 185.977 86.7556 186.002 86.7002C186.334 85.979 186.389 52.1437 186.104 51.4148C186.047 51.2689 185.989 51.1254 185.918 50.9855C188.645 50.8681 191.464 50.8195 194.182 51.0784C194.274 51.251 194.355 51.4274 194.408 51.6163C194.896 53.353 194.426 55.9921 193.581 57.5371C197.014 54.0134 196.114 52.3776 201.508 50.457Z"/>
	<path fill="#FCFBFC" d="M236.183 39.7865C238.016 39.6711 239.877 39.8729 241.706 40.0067C241.899 40.2699 242.081 40.5796 242.164 40.8976C242.689 42.8955 242.954 49.1691 241.906 50.9819L255.532 50.9652C255.665 51.1567 255.782 51.3669 255.859 51.5874C256.416 53.1739 256.281 57.2791 255.586 58.7601C251.001 58.6529 246.416 58.7974 241.831 58.6041C243.15 60.762 242.316 70.3724 242.325 73.1831C242.33 74.5287 242.208 77.8794 243.225 78.8384C244.538 80.0775 253.109 79.4185 254.972 79.3502C255.048 79.48 255.112 79.613 255.17 79.7517C255.777 81.2158 255.666 84.6822 255.073 86.1306L255.119 86.7788L254.647 87.0575C250.085 87.0512 244.796 87.6652 240.437 86.1796C233.51 83.8185 233.671 76.8559 233.586 70.8138C233.548 68.0769 233.434 65.3263 233.496 62.59C233.519 61.5558 233.887 59.4418 233.432 58.6033C233.416 58.573 233.398 58.5436 233.38 58.5138C230.185 59.0147 226.734 58.7381 223.508 58.6928Q223.66 58.4447 223.763 58.1728C224.335 56.6439 224.268 52.4074 223.612 50.9773C226.856 50.7849 230.205 50.9678 233.46 50.9844C233.909 48.2868 232.778 42.6119 234.333 40.4855C234.81 39.833 235.446 39.8981 236.183 39.7865Z"/>
	<path fill="#FCFBFC" d="M391.563 39.7866C393.824 39.7918 396.107 39.8602 398.354 39.5785C398.417 39.6823 398.466 39.7899 398.522 39.8975C398.614 40.077 398.706 40.2556 398.773 40.4471C399.325 42.0307 399.327 49.507 398.638 50.9823C403.233 50.9522 407.864 50.7968 412.453 51.0506C412.61 51.3087 412.739 51.592 412.806 51.8873C413.17 53.4705 413.211 57.4686 412.356 58.78C407.689 58.6489 403.018 58.7081 398.35 58.579C398.389 58.6386 398.425 58.6981 398.457 58.7617C398.476 58.7981 398.493 58.8351 398.512 58.8714C400.274 62.3339 398.356 71.7202 398.911 75.9913C399.047 77.0364 399.45 78.0353 400.314 78.6838C402.622 80.4164 408.686 79.606 411.462 79.1815C411.615 79.4321 411.74 79.6902 411.825 79.9715C412.21 81.2504 412.117 82.5117 411.492 83.6899C411.654 83.9845 411.808 84.2874 411.923 84.604C412.223 85.4344 412.148 86.2907 411.778 87.0766C407.21 87.0838 401.896 87.6206 397.481 86.285C388.364 83.5273 390.302 70.7608 390.356 63.4175C390.368 61.9379 390.593 59.8789 389.865 58.5541C389.853 58.5322 389.84 58.5108 389.828 58.4891C386.915 59.1751 383.202 58.7341 380.211 58.6712Q380.332 58.4907 380.419 58.292C380.949 57.073 380.881 52.2419 380.402 51.0007C383.644 50.7486 387.031 50.9509 390.289 50.968C391.039 49.566 389.959 43.5123 390.512 41.1781C390.707 40.3526 390.866 40.2216 391.563 39.7866Z"/>
	<path fill="#FCFBFC" d="M120.536 50.4152C123.781 50.1331 126.843 50.3808 129.908 51.5619C133.227 52.8408 136.76 55.4807 138.21 58.8099C138.722 59.9856 139.566 62.0338 139.079 63.2711C136.492 63.5814 133.782 63.4497 131.176 63.4684C131.211 62.8456 130.711 61.9911 130.379 61.49C128.968 59.3653 127.362 58.3026 124.87 57.7966C122.96 57.4088 120.91 57.6179 119.268 58.7243C117.748 59.7479 116.909 61.3678 116.575 63.1349C115.925 66.5744 115.912 75.3765 117.844 78.1654C118.766 79.4966 119.903 80.0491 121.481 80.3173C123.791 80.7099 126.419 80.3334 128.345 78.9318C129.309 78.2304 130.577 76.6435 130.768 75.4364C132.829 74.1827 136.579 74.7524 138.948 74.8643C139.222 76.7264 138.382 78.7933 137.448 80.3891C135.377 83.9298 131.811 86.2139 127.893 87.236C123.459 88.3927 118.221 87.8161 114.25 85.4765Q113.702 85.1562 113.189 84.7828Q112.676 84.4095 112.203 83.9868Q111.73 83.5642 111.301 83.0964Q110.872 82.6287 110.493 82.1206Q110.113 81.6124 109.786 81.0689Q109.459 80.5255 109.188 79.9521Q108.917 79.3787 108.704 78.7812Q108.492 78.1836 108.34 77.5679C107.045 72.4652 106.995 61.6876 109.78 57.0233C112.258 52.8733 116.098 51.5366 120.536 50.4152Z"/>
	<path fill="#FCFBFC" d="M355.529 50.4572C358.167 50.1968 360.455 50.2509 363.038 50.8936C366.831 51.8375 370.753 54.1551 372.782 57.5934C373.605 58.9869 374.699 61.5888 374.287 63.1867C371.723 63.5552 369.078 63.4609 366.491 63.4754C366.503 62.9087 366.104 62.2051 365.794 61.7546C364.212 59.4487 362.697 58.2645 359.91 57.752C358.039 57.4079 356.019 57.6866 354.439 58.7913C352.892 59.8732 352.068 61.6165 351.758 63.4351C351.102 67.2757 350.809 74.991 353.161 78.2371C354.105 79.5399 355.301 80.1289 356.875 80.365C359.128 80.7031 361.751 80.2332 363.582 78.8419C364.467 78.1697 365.884 76.542 366.041 75.4182C368.237 74.2053 371.673 74.7356 374.128 74.8226C374.164 74.915 374.196 75.0061 374.223 75.1017C374.619 76.4669 373.648 78.7217 372.977 79.8981C370.884 83.5649 367.524 86.0628 363.465 87.1723C358.989 88.3962 353.728 87.8656 349.679 85.5454C346.689 83.8313 344.529 81.1152 343.641 77.7785C342.344 72.9047 342.323 61.6158 344.922 57.1489C347.266 53.1186 351.232 51.5871 355.529 50.4572Z"/>
	<path fill="#FCFBFC" d="M281.992 50.4573C285.238 50.0818 288.534 50.3823 291.409 52.059C294.178 53.6741 295.87 56.3027 296.665 59.364C297.128 61.146 297.968 65.1943 297.017 66.8101C294.155 66.59 291.116 66.7941 288.236 66.7984C288.768 65.7146 288.546 64.0605 288.277 62.9087C287.838 61.0324 286.716 59.441 285.066 58.4295C283.324 57.3616 281.378 57.2447 279.43 57.7273C271.114 59.7871 277.107 73.2332 274.443 77.5294C274.43 77.5503 274.416 77.5708 274.403 77.5915C274.499 77.7391 274.581 77.8905 274.657 78.0496C275.406 79.6332 275.232 85.378 274.631 87.0855Q270.251 87.1982 265.873 87.0185C265.882 87.0001 265.891 86.9821 265.899 86.9634C265.913 86.9324 265.924 86.9004 265.938 86.8695C265.962 86.8142 265.991 86.761 266.016 86.7056C266.329 85.9912 266.436 52.463 266.062 51.4876C265.998 51.3207 265.933 51.1578 265.852 50.9977C268.568 50.8469 271.431 50.8048 274.135 51.0912Q274.283 51.3727 274.371 51.678C274.862 53.37 274.384 56.0152 273.544 57.5268C276.921 53.9503 276.599 52.0472 281.992 50.4573Z"/>
	<path fill="#FE914D" d="M98.0509 47.8558L98.691 48.2708C99.2131 50.528 98.9539 53.3174 98.9901 55.6457C90.8593 58.7829 83.2086 63.2566 74.7736 65.5727C81.7024 66.669 92.2141 72.179 98.835 75.3984L98.9172 83.3149L94.7599 81.4016C92.0866 80.37 89.4468 78.9747 86.836 77.7796Q78.0379 73.6796 69.1335 69.8156C68.8777 67.0298 68.9798 64.2027 68.9955 61.4077C72.4124 59.3282 76.3184 57.7891 79.9519 56.1231L98.0509 47.8558Z"/>
	<path fill="#FE914D" d="M578.097 48.3227Q578.449 48.242 578.81 48.241C580.329 48.246 606.399 60.1446 607.603 61.3445Q607.774 61.582 607.896 61.8478C608.609 63.4438 608.485 68.1301 607.871 69.7006C607.225 70.5422 584.947 80.503 582.484 81.2509C581.681 82.2802 578.931 82.9922 577.717 83.4122Q577.938 83.0876 578.078 82.7205C578.67 81.1661 578.682 76.7844 578.027 75.3379C581.102 74.5711 584.614 72.485 587.542 71.1851C592.232 69.1032 596.876 67.2744 601.681 65.4907C600.384 64.6085 597.212 63.9315 595.547 63.2414C589.731 60.8318 584.033 57.7358 578.07 55.7346C578.098 55.6716 578.12 55.6067 578.143 55.5417C578.625 54.1564 578.734 49.609 578.097 48.3227Z"/>
</svg>
