<?xml version="1.0" encoding="UTF-8"?>
<!DOCTYPE svg PUBLIC "-//W3C//DTD SVG 1.1//EN" "http://www.w3.org/Graphics/SVG/1.1/DTD/svg11.dtd">
<svg xmlns="http://www.w3.org/2000/svg" version="1.1" width="440px" height="364px" style="shape-rendering:geometricPrecision; text-rendering:geometricPrecision; image-rendering:optimizeQuality; fill-rule:evenodd; clip-rule:evenodd" xmlns:xlink="http://www.w3.org/1999/xlink">
<g><path style="opacity:0.008" fill="#fefefe" d="M 192.5,85.5 C 193.251,84.4265 194.251,84.2599 195.5,85C 194.552,85.4828 193.552,85.6495 192.5,85.5 Z"/></g>
<g><path style="opacity:0.008" fill="#fefefe" d="M 200.5,85.5 C 201.251,84.4265 202.251,84.2599 203.5,85C 202.552,85.4828 201.552,85.6495 200.5,85.5 Z"/></g>
<g><path style="opacity:0.008" fill="#fefefe" d="M 229.5,85.5 C 230.601,84.4017 231.934,84.235 233.5,85C 232.207,85.49 230.873,85.6567 229.5,85.5 Z"/></g>
<g><path style="opacity:0.009" fill="#fdfdfd" d="M 238.5,85.5 C 239.251,84.4265 240.251,84.2599 241.5,85C 240.552,85.4828 239.552,85.6495 238.5,85.5 Z"/></g>
<g><path style="opacity:0.979" fill="#fafafa" d="M 214.5,97.5 C 214.5,110.5 214.5,123.5 214.5,136.5C 210.366,137.485 206.032,137.818 201.5,137.5C 201.667,125.495 201.5,113.495 201,101.5C 200.722,100.584 200.222,99.9175 199.5,99.5C 199.167,99.5 198.833,99.5 198.5,99.5C 197.178,99.33 196.011,99.6634 195,100.5C 194.505,102.473 194.338,104.473 194.5,106.5C 194.5,114.833 194.5,123.167 194.5,131.5C 194.557,132.609 194.89,133.609 195.5,134.5C 195.5,135.5 195.5,136.5 195.5,137.5C 195.5,138.167 195.833,138.5 196.5,138.5C 196.263,139.791 196.596,140.791 197.5,141.5C 197.5,141.833 197.5,142.167 197.5,142.5C 197.328,143.492 197.662,144.158 198.5,144.5C 198.328,145.492 198.662,146.158 199.5,146.5C 199.5,146.833 199.5,147.167 199.5,147.5C 199.5,148.167 199.833,148.5 200.5,148.5C 200.5,148.833 200.5,149.167 200.5,149.5C 200.5,149.833 200.5,150.167 200.5,150.5C 200.5,151.167 200.833,151.5 201.5,151.5C 201.5,151.833 201.5,152.167 201.5,152.5C 201.5,153.167 201.833,153.5 202.5,153.5C 202.5,154.167 202.833,154.5 203.5,154.5C 203.5,154.833 203.5,155.167 203.5,155.5C 203.5,156.167 203.833,156.5 204.5,156.5C 204.5,156.833 204.5,157.167 204.5,157.5C 204.5,158.167 204.833,158.5 205.5,158.5C 205.328,159.492 205.662,160.158 206.5,160.5C 206.328,161.492 206.662,162.158 207.5,162.5C 207.5,162.833 207.5,163.167 207.5,163.5C 207.5,163.833 207.5,164.167 207.5,164.5C 207.5,165.167 207.833,165.5 208.5,165.5C 208.328,166.492 208.662,167.158 209.5,167.5C 209.328,168.492 209.662,169.158 210.5,169.5C 210.5,170.167 210.5,170.833 210.5,171.5C 210.5,172.167 210.833,172.5 211.5,172.5C 211.5,173.167 211.5,173.833 211.5,174.5C 211.5,175.167 211.833,175.5 212.5,175.5C 212.5,176.5 212.5,177.5 212.5,178.5C 212.5,179.167 212.833,179.5 213.5,179.5C 213.232,181.099 213.566,182.432 214.5,183.5C 214.5,184.167 214.5,184.833 214.5,185.5C 214.5,188.167 214.5,190.833 214.5,193.5C 214.5,202.167 214.5,210.833 214.5,219.5C 214.5,220.833 214.5,222.167 214.5,223.5C 214.5,223.833 214.5,224.167 214.5,224.5C 213.662,224.842 213.328,225.508 213.5,226.5C 212.833,226.5 212.5,226.833 212.5,227.5C 212.5,227.833 212.5,228.167 212.5,228.5C 211.833,228.5 211.5,228.833 211.5,229.5C 208.331,233.084 204.331,235.084 199.5,235.5C 197.833,235.5 196.167,235.5 194.5,235.5C 193.391,235.443 192.391,235.11 191.5,234.5C 191.167,234.5 190.833,234.5 190.5,234.5C 190.167,234.5 189.833,234.5 189.5,234.5C 189.5,233.833 189.167,233.5 188.5,233.5C 187.833,233.167 187.167,232.833 186.5,232.5C 186.5,231.833 186.167,231.5 185.5,231.5C 185.5,230.833 185.167,230.5 184.5,230.5C 184.5,229.833 184.167,229.5 183.5,229.5C 183.672,228.508 183.338,227.842 182.5,227.5C 182.672,226.508 182.338,225.842 181.5,225.5C 181.5,225.167 181.5,224.833 181.5,224.5C 181.5,223.833 181.5,223.167 181.5,222.5C 180.553,213.22 180.22,203.886 180.5,194.5C 180.5,191.167 180.5,187.833 180.5,184.5C 185.167,184.5 189.833,184.5 194.5,184.5C 194.172,196.678 194.505,208.678 195.5,220.5C 195.5,221.167 195.833,221.5 196.5,221.5C 196.5,222.167 196.833,222.5 197.5,222.5C 198.492,222.672 199.158,222.338 199.5,221.5C 200.167,221.5 200.5,221.167 200.5,220.5C 201.338,220.158 201.672,219.492 201.5,218.5C 201.5,210.5 201.5,202.5 201.5,194.5C 201.675,192.379 201.341,190.379 200.5,188.5C 200.5,187.5 200.5,186.5 200.5,185.5C 200.167,184.833 199.833,184.167 199.5,183.5C 199.5,183.167 199.5,182.833 199.5,182.5C 199.672,181.508 199.338,180.842 198.5,180.5C 198.672,179.508 198.338,178.842 197.5,178.5C 197.5,178.167 197.5,177.833 197.5,177.5C 197.5,177.167 197.5,176.833 197.5,176.5C 197.167,175.833 196.833,175.167 196.5,174.5C 196.5,173.833 196.167,173.5 195.5,173.5C 195.5,173.167 195.5,172.833 195.5,172.5C 195.5,171.833 195.167,171.5 194.5,171.5C 194.5,171.167 194.5,170.833 194.5,170.5C 194.5,169.833 194.167,169.5 193.5,169.5C 193.5,169.167 193.5,168.833 193.5,168.5C 193.5,167.833 193.167,167.5 192.5,167.5C 192.5,167.167 192.5,166.833 192.5,166.5C 192.5,165.833 192.167,165.5 191.5,165.5C 191.34,163.847 190.674,162.514 189.5,161.5C 189.5,161.167 189.5,160.833 189.5,160.5C 188.833,159.167 188.167,157.833 187.5,156.5C 187.5,155.833 187.167,155.5 186.5,155.5C 186.5,155.167 186.5,154.833 186.5,154.5C 186.5,154.167 186.5,153.833 186.5,153.5C 186.5,152.833 186.167,152.5 185.5,152.5C 185.5,152.167 185.5,151.833 185.5,151.5C 185.167,150.833 184.833,150.167 184.5,149.5C 184.5,149.167 184.5,148.833 184.5,148.5C 184.167,147.833 183.833,147.167 183.5,146.5C 183.5,145.833 183.5,145.167 183.5,144.5C 183.167,143.833 182.833,143.167 182.5,142.5C 182.5,141.833 182.5,141.167 182.5,140.5C 182.443,139.391 182.11,138.391 181.5,137.5C 181.5,135.833 181.5,134.167 181.5,132.5C 180.546,121.885 180.213,111.218 180.5,100.5C 181.434,99.4324 181.768,98.099 181.5,96.5C 182.338,96.1583 182.672,95.4916 182.5,94.5C 189.701,85.689 198.368,83.8557 208.5,89C 211.395,91.3218 213.395,94.1552 214.5,97.5 Z"/></g>
<g><path style="opacity:0.012" fill="#fefffe" d="M 227.5,85.5 C 228.833,86.1667 228.833,86.1667 227.5,85.5 Z"/></g>
<g><path style="opacity:0.983" fill="#fbfbfb" d="M 251.5,95.5 C 251.263,96.791 251.596,97.791 252.5,98.5C 252.5,111.167 252.5,123.833 252.5,136.5C 248.366,137.485 244.032,137.818 239.5,137.5C 239.812,125.42 239.479,113.42 238.5,101.5C 238.5,100.833 238.167,100.5 237.5,100.5C 237.5,99.8333 237.167,99.5 236.5,99.5C 235.833,99.5 235.167,99.5 234.5,99.5C 233.833,99.5 233.5,99.8333 233.5,100.5C 232.513,105.305 232.179,110.305 232.5,115.5C 232.5,149.167 232.5,182.833 232.5,216.5C 232.5,216.833 232.5,217.167 232.5,217.5C 232.5,218.5 232.5,219.5 232.5,220.5C 233.29,221.401 234.29,222.068 235.5,222.5C 235.833,222.5 236.167,222.5 236.5,222.5C 237.167,222.5 237.5,222.167 237.5,221.5C 238.338,221.158 238.672,220.492 238.5,219.5C 239.495,208.012 239.828,196.345 239.5,184.5C 243.833,184.5 248.167,184.5 252.5,184.5C 252.5,196.833 252.5,209.167 252.5,221.5C 252.167,222.167 251.833,222.833 251.5,223.5C 251.5,224.167 251.5,224.833 251.5,225.5C 251.5,225.833 251.5,226.167 251.5,226.5C 250.833,226.5 250.5,226.833 250.5,227.5C 250.5,227.833 250.5,228.167 250.5,228.5C 249.833,228.5 249.5,228.833 249.5,229.5C 248.833,229.5 248.5,229.833 248.5,230.5C 245.484,233.506 241.818,235.173 237.5,235.5C 236.167,235.5 234.833,235.5 233.5,235.5C 232.041,235.567 230.708,235.234 229.5,234.5C 229.167,234.5 228.833,234.5 228.5,234.5C 228.167,234.5 227.833,234.5 227.5,234.5C 227.5,233.833 227.167,233.5 226.5,233.5C 225.833,233.167 225.167,232.833 224.5,232.5C 224.5,231.833 224.167,231.5 223.5,231.5C 223.5,230.833 223.167,230.5 222.5,230.5C 222.5,229.833 222.167,229.5 221.5,229.5C 221.672,228.508 221.338,227.842 220.5,227.5C 220.5,227.167 220.5,226.833 220.5,226.5C 220.5,225.833 220.167,225.5 219.5,225.5C 219.5,224.833 219.5,224.167 219.5,223.5C 218.766,222.292 218.433,220.959 218.5,219.5C 218.5,179.5 218.5,139.5 218.5,99.5C 219.167,99.5 219.5,99.1667 219.5,98.5C 219.5,97.5 219.5,96.5 219.5,95.5C 230.316,82.2831 240.982,82.2831 251.5,95.5 Z"/></g>
<g><path style="opacity:0.008" fill="#fefefe" d="M 312.5,86.5 C 316.311,85.3547 320.311,85.1881 324.5,86C 320.514,86.4988 316.514,86.6655 312.5,86.5 Z"/></g>
<g><path style="opacity:0.008" fill="#fefefe" d="M 340.5,86.5 C 348.323,85.3439 356.323,85.1772 364.5,86C 356.507,86.4997 348.507,86.6664 340.5,86.5 Z"/></g>
<g><path style="opacity:0.008" fill="#fefffe" d="M 225.5,86.5 C 226.833,87.1667 226.833,87.1667 225.5,86.5 Z"/></g>
<g><path style="opacity:0.982" fill="#fefefe" d="M 325.5,89.5 C 324.501,132.997 324.168,176.663 324.5,220.5C 327.962,221.482 331.629,221.815 335.5,221.5C 335.5,225.5 335.5,229.5 335.5,233.5C 327.833,233.5 320.167,233.5 312.5,233.5C 312.832,187.33 312.499,141.33 311.5,95.5C 311.5,92.8333 311.5,90.1667 311.5,87.5C 316.619,86.8969 321.285,87.5636 325.5,89.5 Z"/></g>
<g><path style="opacity:0.976" fill="#f4f4f4" d="M 365.5,94.5 C 365.739,96.4672 365.406,98.3005 364.5,100C 361.183,100.498 357.85,100.665 354.5,100.5C 353.833,100.5 353.5,100.833 353.5,101.5C 353.5,104.5 353.5,107.5 353.5,110.5C 353.171,124.677 353.504,138.677 354.5,152.5C 355.167,152.5 355.833,152.5 356.5,152.5C 359.167,152.5 361.833,152.5 364.5,152.5C 364.5,156.5 364.5,160.5 364.5,164.5C 361.101,165.82 357.601,165.82 354,164.5C 353.502,167.817 353.335,171.15 353.5,174.5C 353.5,189.5 353.5,204.5 353.5,219.5C 353.5,219.833 353.5,220.167 353.5,220.5C 357.298,221.483 361.298,221.817 365.5,221.5C 365.5,225.5 365.5,229.5 365.5,233.5C 365.5,234.167 365.167,234.5 364.5,234.5C 363.5,234.5 362.5,234.5 361.5,234.5C 355.5,234.5 349.5,234.5 343.5,234.5C 342.5,234.5 341.5,234.5 340.5,234.5C 339.505,187.905 339.172,141.239 339.5,94.5C 339.5,92.1667 339.5,89.8333 339.5,87.5C 348.167,87.5 356.833,87.5 365.5,87.5C 365.5,89.8333 365.5,92.1667 365.5,94.5 Z"/></g>
<g><path style="opacity:0.008" fill="#000000" d="M 327.5,91.5 C 328.41,93.0188 329.243,94.6854 330,96.5C 330.172,137.571 330.672,178.571 331.5,219.5C 330.167,219.5 328.833,219.5 327.5,219.5C 327.5,176.833 327.5,134.167 327.5,91.5 Z"/></g>
<g><path style="opacity:0.008" fill="#000000" d="M 337.5,91.5 C 337.832,134.67 337.499,177.67 336.5,220.5C 336.167,220.5 335.833,220.5 335.5,220.5C 335.5,219.833 335.167,219.5 334.5,219.5C 334.333,178.499 334.5,137.499 335,96.5C 335.757,94.6854 336.59,93.0188 337.5,91.5 Z"/></g>
<g><path style="opacity:0.013" fill="#050505" d="M 359.5,149.5 C 358.167,149.5 356.833,149.5 355.5,149.5C 355.832,135.753 355.499,122.753 354.5,110.5C 354.167,110.5 353.833,110.5 353.5,110.5C 353.5,107.5 353.5,104.5 353.5,101.5C 354.167,101.5 354.5,101.167 354.5,100.5C 357.85,100.665 361.183,100.498 364.5,100C 365.406,98.3005 365.739,96.4672 365.5,94.5C 366.302,93.0484 366.802,91.3817 367,89.5C 371.147,96.0001 371.481,102.667 368,109.5C 365.65,110.561 362.984,111.894 360,113.5C 359.5,125.495 359.333,137.495 359.5,149.5 Z"/></g>
<g><path style="opacity:0.022" fill="#0a100c" d="M 311.5,233.5 C 311.5,234.167 311.833,234.5 312.5,234.5C 313.5,235.833 314.5,235.833 315.5,234.5C 320.833,234.5 326.167,234.5 331.5,234.5C 332.833,235.833 334.167,235.833 335.5,234.5C 336.338,234.158 336.672,233.492 336.5,232.5C 336.833,232.5 337.167,232.5 337.5,232.5C 338.5,187.239 338.833,141.239 338.5,94.5C 338.833,94.5 339.167,94.5 339.5,94.5C 339.172,141.239 339.505,187.905 340.5,234.5C 341.5,235.833 342.5,235.833 343.5,234.5C 349.5,234.5 355.5,234.5 361.5,234.5C 362.5,235.833 363.5,235.833 364.5,234.5C 365.167,234.5 365.5,234.167 365.5,233.5C 365.833,233.5 366.167,233.5 366.5,233.5C 367.461,231.735 367.795,229.735 367.5,227.5C 368.167,227.5 368.5,227.167 368.5,226.5C 374.139,241.371 368.973,248.038 353,246.5C 347.863,246.686 342.863,246.019 338,244.5C 335.416,245.589 332.916,246.589 330.5,247.5C 330.167,247.5 329.833,247.5 329.5,247.5C 329.5,247.167 329.5,246.833 329.5,246.5C 329.389,245.883 329.056,245.383 328.5,245C 322.175,244.5 315.842,244.334 309.5,244.5C 309.214,242.067 308.548,242.067 307.5,244.5C 302.5,244.5 297.5,244.5 292.5,244.5C 292.167,243.167 291.833,243.167 291.5,244.5C 279.833,244.5 268.167,244.5 256.5,244.5C 255.32,242.986 254.32,241.319 253.5,239.5C 252.307,241.527 250.64,243.027 248.5,244C 248.833,244.333 249.167,244.667 249.5,245C 240.482,245.832 231.482,245.665 222.5,244.5C 220.146,242.812 218.146,240.812 216.5,238.5C 213.985,240.764 211.985,243.431 210.5,246.5C 208.146,245.316 205.813,245.482 203.5,247C 189.304,249.586 180.138,244.086 176,230.5C 175.333,218.167 175.333,205.833 176,193.5C 178.623,184.455 180.123,184.788 180.5,194.5C 180.22,203.886 180.553,213.22 181.5,222.5C 180.167,223.167 180.167,223.833 181.5,224.5C 181.5,224.833 181.5,225.167 181.5,225.5C 181.328,226.492 181.662,227.158 182.5,227.5C 183.338,227.842 183.672,228.508 183.5,229.5C 184.167,229.5 184.5,229.833 184.5,230.5C 185.167,230.5 185.5,230.833 185.5,231.5C 186.167,231.5 186.5,231.833 186.5,232.5C 187.167,232.833 187.833,233.167 188.5,233.5C 189.167,233.5 189.5,233.833 189.5,234.5C 189.833,234.5 190.167,234.5 190.5,234.5C 190.833,235.833 191.167,235.833 191.5,234.5C 192.391,235.11 193.391,235.443 194.5,235.5C 196.167,236.833 197.833,236.833 199.5,235.5C 204.331,235.084 208.331,233.084 211.5,229.5C 212.167,229.5 212.5,229.167 212.5,228.5C 213.833,228.167 213.833,227.833 212.5,227.5C 212.5,226.833 212.833,226.5 213.5,226.5C 214.338,226.158 214.672,225.492 214.5,224.5C 214.5,224.167 214.5,223.833 214.5,223.5C 215.167,223.5 215.5,223.167 215.5,222.5C 216.401,221.71 217.068,220.71 217.5,219.5C 217.833,219.5 218.167,219.5 218.5,219.5C 218.433,220.959 218.766,222.292 219.5,223.5C 218.167,224.167 218.167,224.833 219.5,225.5C 220.167,225.5 220.5,225.833 220.5,226.5C 219.167,226.833 219.167,227.167 220.5,227.5C 221.338,227.842 221.672,228.508 221.5,229.5C 222.167,229.5 222.5,229.833 222.5,230.5C 223.167,230.5 223.5,230.833 223.5,231.5C 224.167,231.5 224.5,231.833 224.5,232.5C 225.167,232.833 225.833,233.167 226.5,233.5C 227.167,233.5 227.5,233.833 227.5,234.5C 227.833,234.5 228.167,234.5 228.5,234.5C 228.833,235.833 229.167,235.833 229.5,234.5C 230.708,235.234 232.041,235.567 233.5,235.5C 234.833,236.833 236.167,236.833 237.5,235.5C 241.818,235.173 245.484,233.506 248.5,230.5C 249.167,230.5 249.5,230.167 249.5,229.5C 250.167,229.5 250.5,229.167 250.5,228.5C 250.5,228.167 250.5,227.833 250.5,227.5C 251.167,227.5 251.5,227.167 251.5,226.5C 251.5,226.167 251.5,225.833 251.5,225.5C 252.833,224.833 252.833,224.167 251.5,223.5C 251.833,222.833 252.167,222.167 252.5,221.5C 252.833,221.5 253.167,221.5 253.5,221.5C 254.024,223.306 254.691,224.972 255.5,226.5C 255.833,226.5 256.167,226.5 256.5,226.5C 256.833,227.167 257.167,227.833 257.5,228.5C 256.167,228.833 256.167,229.167 257.5,229.5C 258.167,229.5 258.5,229.833 258.5,230.5C 257.167,230.833 257.167,231.167 258.5,231.5C 258.5,232.167 258.833,232.5 259.5,232.5C 259.5,233.167 259.833,233.5 260.5,233.5C 260.5,234.167 260.833,234.5 261.5,234.5C 262.833,234.833 264.167,235.167 265.5,235.5C 266.5,236.833 267.5,236.833 268.5,235.5C 269.167,235.167 269.833,234.833 270.5,234.5C 270.833,235.833 271.167,235.833 271.5,234.5C 273.441,233.326 274.941,231.659 276,229.5C 276.494,231.134 276.66,232.801 276.5,234.5C 279.5,234.5 282.5,234.5 285.5,234.5C 286.5,235.833 287.5,235.833 288.5,234.5C 288.5,200.167 288.5,165.833 288.5,131.5C 288.833,131.5 289.167,131.5 289.5,131.5C 291.153,165.449 292.153,199.449 292.5,233.5C 292.833,233.5 293.167,233.5 293.5,233.5C 293.5,234.167 293.833,234.5 294.5,234.5C 295.5,235.833 296.5,235.833 297.5,234.5C 299.167,234.5 300.833,234.5 302.5,234.5C 303.5,235.833 304.5,235.833 305.5,234.5C 306.167,234.5 306.5,234.167 306.5,233.5C 307.833,194.833 307.833,156.167 306.5,117.5C 306.167,117.5 305.833,117.5 305.5,117.5C 301.833,116.167 298.167,116.167 294.5,117.5C 293.833,117.5 293.5,117.833 293.5,118.5C 293.167,118.5 292.833,118.5 292.5,118.5C 291.676,122.312 291.176,126.312 291,130.5C 290.79,128.942 290.29,127.609 289.5,126.5C 289.167,126.5 288.833,126.5 288.5,126.5C 288.672,125.508 288.338,124.842 287.5,124.5C 288.138,123.476 288.805,122.476 289.5,121.5C 286.441,114.54 286.941,107.873 291,101.5C 291.186,104.036 291.686,106.369 292.5,108.5C 292.328,109.492 292.662,110.158 293.5,110.5C 293.5,111.167 293.833,111.5 294.5,111.5C 295.492,111.328 296.158,111.662 296.5,112.5C 296.833,113.833 297.167,113.833 297.5,112.5C 299.167,112.5 300.833,112.5 302.5,112.5C 302.833,113.833 303.167,113.833 303.5,112.5C 303.833,112.5 304.167,112.5 304.5,112.5C 305.167,112.5 305.5,112.167 305.5,111.5C 306.167,111.5 306.5,111.167 306.5,110.5C 307.833,110.167 307.833,109.833 306.5,109.5C 306.5,108.833 306.833,108.5 307.5,108.5C 308.833,106.167 308.833,103.833 307.5,101.5C 307.5,100.833 307.167,100.5 306.5,100.5C 306.5,99.8333 306.167,99.5 305.5,99.5C 305.5,98.8333 305.167,98.5 304.5,98.5C 304.5,98.1667 304.5,97.8333 304.5,97.5C 305.376,97.6309 306.043,97.2975 306.5,96.5C 307.921,93.5857 309.088,90.5857 310,87.5C 310.167,136.335 310.667,185.002 311.5,233.5 Z M 216.5,238.5 C 218.146,240.812 220.146,242.812 222.5,244.5C 231.482,245.665 240.482,245.832 249.5,245C 249.167,244.667 248.833,244.333 248.5,244C 250.64,243.027 252.307,241.527 253.5,239.5C 254.32,241.319 255.32,242.986 256.5,244.5C 280.167,245.167 303.833,245.833 327.5,246.5C 288.5,246.5 249.5,246.5 210.5,246.5C 211.985,243.431 213.985,240.764 216.5,238.5 Z M 309.5,244.5 C 308.833,244.5 308.167,244.5 307.5,244.5C 308.548,242.067 309.214,242.067 309.5,244.5 Z"/></g>
<g><path style="opacity:0.012" fill="#8d8d8d" d="M 182.5,94.5 C 181.662,94.8417 181.328,95.5084 181.5,96.5C 180.596,97.209 180.263,98.209 180.5,99.5C 179.596,98.791 179.263,97.791 179.5,96.5C 180.072,95.0267 180.905,93.6934 182,92.5C 182.464,93.0944 182.631,93.7611 182.5,94.5 Z"/></g>
<g><path style="opacity:0.009" fill="#00be62" d="M 297.5,96.5 C 298.946,95.3871 300.613,95.2204 302.5,96C 300.866,96.4935 299.199,96.6602 297.5,96.5 Z"/></g>
<g><path style="opacity:0.008" fill="#00bd61" d="M 295.5,96.5 C 296.833,97.1667 296.833,97.1667 295.5,96.5 Z"/></g>
<g><path style="opacity:0.012" fill="#00be61" d="M 304.5,97.5 C 303.833,96.1667 303.833,96.1667 304.5,97.5 Z"/></g>
<g><path style="opacity:0.936" fill="#00bc61" d="M 304.5,98.5 C 305.167,98.5 305.5,98.8333 305.5,99.5C 306.167,99.5 306.5,99.8333 306.5,100.5C 307.167,100.5 307.5,100.833 307.5,101.5C 307.5,103.833 307.5,106.167 307.5,108.5C 306.833,108.5 306.5,108.833 306.5,109.5C 306.5,109.833 306.5,110.167 306.5,110.5C 305.833,110.5 305.5,110.833 305.5,111.5C 304.833,111.5 304.5,111.833 304.5,112.5C 304.167,112.5 303.833,112.5 303.5,112.5C 303.167,112.5 302.833,112.5 302.5,112.5C 300.833,112.5 299.167,112.5 297.5,112.5C 297.167,112.5 296.833,112.5 296.5,112.5C 296.158,111.662 295.492,111.328 294.5,111.5C 293.833,111.5 293.5,111.167 293.5,110.5C 293.672,109.508 293.338,108.842 292.5,108.5C 291.966,99.6993 295.966,96.366 304.5,98.5 Z"/></g>
<g><path style="opacity:0.016" fill="#141414" d="M 179.5,96.5 C 179.263,97.791 179.596,98.791 180.5,99.5C 180.5,99.8333 180.5,100.167 180.5,100.5C 180.213,111.218 180.546,121.885 181.5,132.5C 180.167,134.167 180.167,135.833 181.5,137.5C 182.11,138.391 182.443,139.391 182.5,140.5C 181.167,141.167 181.167,141.833 182.5,142.5C 182.833,143.167 183.167,143.833 183.5,144.5C 182.167,145.167 182.167,145.833 183.5,146.5C 183.833,147.167 184.167,147.833 184.5,148.5C 183.167,148.833 183.167,149.167 184.5,149.5C 184.833,150.167 185.167,150.833 185.5,151.5C 184.167,151.833 184.167,152.167 185.5,152.5C 186.167,152.5 186.5,152.833 186.5,153.5C 185.167,153.833 185.167,154.167 186.5,154.5C 186.5,154.833 186.5,155.167 186.5,155.5C 187.167,155.5 187.5,155.833 187.5,156.5C 188.167,157.833 188.833,159.167 189.5,160.5C 188.167,160.833 188.167,161.167 189.5,161.5C 190.674,162.514 191.34,163.847 191.5,165.5C 192.167,165.5 192.5,165.833 192.5,166.5C 192.5,166.833 192.5,167.167 192.5,167.5C 193.167,167.5 193.5,167.833 193.5,168.5C 193.5,168.833 193.5,169.167 193.5,169.5C 194.167,169.5 194.5,169.833 194.5,170.5C 194.5,170.833 194.5,171.167 194.5,171.5C 195.167,171.5 195.5,171.833 195.5,172.5C 195.5,172.833 195.5,173.167 195.5,173.5C 196.167,173.5 196.5,173.833 196.5,174.5C 196.833,175.167 197.167,175.833 197.5,176.5C 196.167,176.833 196.167,177.167 197.5,177.5C 197.5,177.833 197.5,178.167 197.5,178.5C 197.328,179.492 197.662,180.158 198.5,180.5C 199.338,180.842 199.672,181.508 199.5,182.5C 198.167,182.833 198.167,183.167 199.5,183.5C 199.833,184.167 200.167,184.833 200.5,185.5C 199.167,186.5 199.167,187.5 200.5,188.5C 201.341,190.379 201.675,192.379 201.5,194.5C 200.167,202.5 200.167,210.5 201.5,218.5C 201.672,219.492 201.338,220.158 200.5,220.5C 199.833,220.5 199.5,220.833 199.5,221.5C 199.158,222.338 198.492,222.672 197.5,222.5C 196.833,222.5 196.5,222.167 196.5,221.5C 195.833,221.5 195.5,221.167 195.5,220.5C 195.828,208.322 195.495,196.322 194.5,184.5C 190.353,183.675 186.019,183.175 181.5,183C 184.146,182.503 186.813,182.336 189.5,182.5C 187.234,175.963 184.4,169.629 181,163.5C 178.864,157.291 177.198,150.958 176,144.5C 175.333,131.167 175.333,117.833 176,104.5C 176.705,101.524 177.871,98.8577 179.5,96.5 Z"/></g>
<g><path style="opacity:0.023" fill="#242424" d="M 338.5,94.5 C 338.833,141.239 338.5,187.239 337.5,232.5C 337.815,228.629 337.482,224.962 336.5,221.5C 336.5,221.167 336.5,220.833 336.5,220.5C 337.499,177.67 337.832,134.67 337.5,91.5C 337.369,90.7611 337.536,90.0944 338,89.5C 338.494,91.1341 338.66,92.8008 338.5,94.5 Z"/></g>
<g><path style="opacity:0.019" fill="#0d0d0d" d="M 198.5,99.5 C 198.833,100.833 199.167,100.833 199.5,99.5C 200.222,99.9175 200.722,100.584 201,101.5C 201.5,113.495 201.667,125.495 201.5,137.5C 206.032,137.818 210.366,137.485 214.5,136.5C 214.833,136.5 215.167,136.5 215.5,136.5C 216.833,152.833 216.833,169.167 215.5,185.5C 215.167,185.5 214.833,185.5 214.5,185.5C 214.5,184.833 214.5,184.167 214.5,183.5C 214.768,181.901 214.434,180.568 213.5,179.5C 212.833,179.5 212.5,179.167 212.5,178.5C 213.833,177.5 213.833,176.5 212.5,175.5C 211.833,175.5 211.5,175.167 211.5,174.5C 212.833,173.833 212.833,173.167 211.5,172.5C 210.833,172.5 210.5,172.167 210.5,171.5C 211.833,170.833 211.833,170.167 210.5,169.5C 210.672,168.508 210.338,167.842 209.5,167.5C 209.672,166.508 209.338,165.842 208.5,165.5C 207.833,165.5 207.5,165.167 207.5,164.5C 207.833,164.5 208.167,164.5 208.5,164.5C 209.354,163.368 209.354,162.035 208.5,160.5C 210.105,162.48 211.272,164.813 212,167.5C 212.831,161.141 212.664,154.807 211.5,148.5C 207.775,148.891 205.775,150.891 205.5,154.5C 203.5,151.167 201.5,147.833 199.5,144.5C 199.167,144.5 198.833,144.5 198.5,144.5C 198.672,143.508 198.338,142.842 197.5,142.5C 197.5,142.167 197.5,141.833 197.5,141.5C 197.737,140.209 197.404,139.209 196.5,138.5C 195.833,138.5 195.5,138.167 195.5,137.5C 196.833,136.5 196.833,135.5 195.5,134.5C 194.89,133.609 194.557,132.609 194.5,131.5C 195.833,123.167 195.833,114.833 194.5,106.5C 194.338,104.473 194.505,102.473 195,100.5C 196.011,99.6634 197.178,99.33 198.5,99.5 Z"/></g>
<g><path style="opacity:0.02" fill="#090d0b" d="M 254.5,98.5 C 255.558,99.6002 256.392,100.934 257,102.5C 257.944,109.176 258.778,115.843 259.5,122.5C 258.833,122.5 258.5,122.833 258.5,123.5C 257.167,124.167 257.167,124.833 258.5,125.5C 258.5,126.167 258.167,126.5 257.5,126.5C 256.596,127.209 256.263,128.209 256.5,129.5C 256.5,130.5 256.5,131.5 256.5,132.5C 255.167,141.5 255.167,150.5 256.5,159.5C 260.833,160.833 265.167,160.833 269.5,159.5C 270.833,153.5 270.833,147.5 269.5,141.5C 269.241,137.76 269.574,134.094 270.5,130.5C 271.333,130.167 272.167,129.833 273,129.5C 274.376,129.684 275.209,130.351 275.5,131.5C 276.111,143.087 275.444,154.42 273.5,165.5C 273.5,165.833 273.5,166.167 273.5,166.5C 272.508,166.328 271.842,166.662 271.5,167.5C 271.5,168.167 271.167,168.5 270.5,168.5C 270.167,167.167 269.833,167.167 269.5,168.5C 268.508,168.328 267.842,168.662 267.5,169.5C 266.833,169.5 266.5,169.833 266.5,170.5C 266.167,170.5 265.833,170.5 265.5,170.5C 264.833,170.5 264.5,170.833 264.5,171.5C 263.833,171.5 263.5,171.833 263.5,172.5C 262.833,172.5 262.5,172.833 262.5,173.5C 261.833,173.5 261.5,173.833 261.5,174.5C 260.685,173.571 259.852,172.571 259,171.5C 258,171.5 257,171.5 256,171.5C 254.302,169.734 252.969,167.734 252,165.5C 251.298,159.811 250.465,154.144 249.5,148.5C 246.167,149.833 242.833,149.833 239.5,148.5C 238.175,160.66 238.175,172.66 239.5,184.5C 239.828,196.345 239.495,208.012 238.5,219.5C 237.662,219.842 237.328,220.508 237.5,221.5C 237.5,222.167 237.167,222.5 236.5,222.5C 236.167,221.167 235.833,221.167 235.5,222.5C 234.29,222.068 233.29,221.401 232.5,220.5C 232.833,220.5 233.167,220.5 233.5,220.5C 234.804,181.652 234.804,146.652 233.5,115.5C 233.167,115.5 232.833,115.5 232.5,115.5C 232.179,110.305 232.513,105.305 233.5,100.5C 234.167,100.5 234.5,100.167 234.5,99.5C 235.167,99.5 235.833,99.5 236.5,99.5C 237.167,99.5 237.5,99.8333 237.5,100.5C 238.167,100.5 238.5,100.833 238.5,101.5C 239.479,113.42 239.812,125.42 239.5,137.5C 244.032,137.818 248.366,137.485 252.5,136.5C 252.833,136.5 253.167,136.5 253.5,136.5C 254.495,124.011 254.829,111.344 254.5,98.5 Z"/></g>
<g><path style="opacity:0.059" fill="#7a7a7a" d="M 325.5,89.5 C 325.5,91.1667 325.5,92.8333 325.5,94.5C 324.839,136.513 325.506,178.18 327.5,219.5C 328.833,219.5 330.167,219.5 331.5,219.5C 332.5,219.5 333.5,219.5 334.5,219.5C 335.167,219.5 335.5,219.833 335.5,220.5C 331.833,220.5 328.167,220.5 324.5,220.5C 324.168,176.663 324.501,132.997 325.5,89.5 Z"/></g>
<g><path style="opacity:0.024" fill="#181818" d="M 327.5,91.5 C 327.5,134.167 327.5,176.833 327.5,219.5C 325.506,178.18 324.839,136.513 325.5,94.5C 326.302,93.0484 326.802,91.3817 327,89.5C 327.464,90.0944 327.631,90.7611 327.5,91.5 Z"/></g>
<g><path style="opacity:0.05" fill="#4d4d4d" d="M 219.5,95.5 C 218.167,96.5 218.167,97.5 219.5,98.5C 219.5,99.1667 219.167,99.5 218.5,99.5C 217.501,139.33 217.168,179.33 217.5,219.5C 217.068,220.71 216.401,221.71 215.5,222.5C 215.5,221.5 215.5,220.5 215.5,219.5C 216.816,210.068 216.816,200.735 215.5,191.5C 215.5,189.5 215.5,187.5 215.5,185.5C 216.833,169.167 216.833,152.833 215.5,136.5C 215.829,123.323 215.495,110.323 214.5,97.5C 214.413,94.4017 214.913,94.0684 216,96.5C 217,95.5 218,94.5 219,93.5C 219.464,94.0944 219.631,94.7611 219.5,95.5 Z"/></g>
<g><path style="opacity:0.227" fill="#e0e0e0" d="M 311.5,95.5 C 312.499,141.33 312.832,187.33 312.5,233.5C 320.167,233.5 327.833,233.5 335.5,233.5C 335.5,229.5 335.5,225.5 335.5,221.5C 335.833,221.5 336.167,221.5 336.5,221.5C 336.5,225.167 336.5,228.833 336.5,232.5C 336.672,233.492 336.338,234.158 335.5,234.5C 334.167,234.5 332.833,234.5 331.5,234.5C 326.167,234.5 320.833,234.5 315.5,234.5C 314.5,234.5 313.5,234.5 312.5,234.5C 311.833,234.5 311.5,234.167 311.5,233.5C 311.5,187.5 311.5,141.5 311.5,95.5 Z"/></g>
<g><path style="opacity:0.035" fill="#666666" d="M 254.5,98.5 C 254.829,111.344 254.495,124.011 253.5,136.5C 253.829,123.656 253.495,110.989 252.5,98.5C 252.737,97.209 252.404,96.209 251.5,95.5C 251.369,94.7611 251.536,94.0944 252,93.5C 253.372,94.9101 254.205,96.5767 254.5,98.5 Z"/></g>
<g><path style="opacity:0.011" fill="#00bd62" d="M 268.5,115.5 C 271.304,114.362 274.304,114.195 277.5,115C 274.518,115.498 271.518,115.665 268.5,115.5 Z"/></g>
<g><path style="opacity:0.027" fill="#404040" d="M 359.5,149.5 C 360.043,149.56 360.376,149.893 360.5,150.5C 359.051,151.172 357.718,151.839 356.5,152.5C 355.833,152.5 355.167,152.5 354.5,152.5C 354.5,138.5 354.5,124.5 354.5,110.5C 355.499,122.753 355.832,135.753 355.5,149.5C 356.833,149.5 358.167,149.5 359.5,149.5 Z"/></g>
<g><path style="opacity:0.012" fill="#00bf63" d="M 265.5,116.5 C 265.897,115.475 266.563,115.308 267.5,116C 266.906,116.464 266.239,116.631 265.5,116.5 Z"/></g>
<g><path style="opacity:0.008" fill="#00be61" d="M 278.5,116.5 C 278.897,115.475 279.563,115.308 280.5,116C 279.906,116.464 279.239,116.631 278.5,116.5 Z"/></g>
<g><path style="opacity:0.978" fill="#00bc61" d="M 287.5,124.5 C 287.328,125.492 287.662,126.158 288.5,126.5C 288.5,128.167 288.5,129.833 288.5,131.5C 288.5,165.833 288.5,200.167 288.5,234.5C 287.5,234.5 286.5,234.5 285.5,234.5C 282.5,234.5 279.5,234.5 276.5,234.5C 276.66,232.801 276.494,231.134 276,229.5C 274.941,231.659 273.441,233.326 271.5,234.5C 271.167,234.5 270.833,234.5 270.5,234.5C 269.833,234.833 269.167,235.167 268.5,235.5C 267.5,235.5 266.5,235.5 265.5,235.5C 264.167,235.167 262.833,234.833 261.5,234.5C 260.833,234.5 260.5,234.167 260.5,233.5C 259.833,233.5 259.5,233.167 259.5,232.5C 258.833,232.5 258.5,232.167 258.5,231.5C 258.5,231.167 258.5,230.833 258.5,230.5C 258.5,229.833 258.167,229.5 257.5,229.5C 257.5,229.167 257.5,228.833 257.5,228.5C 257.167,227.833 256.833,227.167 256.5,226.5C 256.5,212.833 256.5,199.167 256.5,185.5C 257.167,185.5 257.5,185.167 257.5,184.5C 257.5,183.5 257.5,182.5 257.5,181.5C 258.338,181.158 258.672,180.492 258.5,179.5C 259.167,179.5 259.5,179.167 259.5,178.5C 259.5,178.167 259.5,177.833 259.5,177.5C 260.401,176.71 261.068,175.71 261.5,174.5C 262.167,174.5 262.5,174.167 262.5,173.5C 263.167,173.5 263.5,173.167 263.5,172.5C 264.167,172.5 264.5,172.167 264.5,171.5C 265.167,171.5 265.5,171.167 265.5,170.5C 265.833,170.5 266.167,170.5 266.5,170.5C 267.167,170.5 267.5,170.167 267.5,169.5C 268.492,169.672 269.158,169.338 269.5,168.5C 269.833,168.5 270.167,168.5 270.5,168.5C 271.167,168.5 271.5,168.167 271.5,167.5C 272.492,167.672 273.158,167.338 273.5,166.5C 274.167,166.5 274.833,166.5 275.5,166.5C 276.833,154.833 276.833,143.167 275.5,131.5C 275.209,130.351 274.376,129.684 273,129.5C 272.167,129.833 271.333,130.167 270.5,130.5C 269.574,134.094 269.241,137.76 269.5,141.5C 269.5,147.5 269.5,153.5 269.5,159.5C 265.167,160.833 260.833,160.833 256.5,159.5C 256.5,150.5 256.5,141.5 256.5,132.5C 256.5,131.5 256.5,130.5 256.5,129.5C 257.404,128.791 257.737,127.791 257.5,126.5C 258.167,126.5 258.5,126.167 258.5,125.5C 258.5,124.833 258.5,124.167 258.5,123.5C 259.167,123.5 259.5,123.167 259.5,122.5C 266.285,116.058 273.952,114.892 282.5,119C 284.402,120.73 286.069,122.563 287.5,124.5 Z"/></g>
<g><path style="opacity:0.997" fill="#00bc61" d="M 294.5,117.5 C 298.167,117.5 301.833,117.5 305.5,117.5C 305.833,117.5 306.167,117.5 306.5,117.5C 306.5,156.167 306.5,194.833 306.5,233.5C 306.5,234.167 306.167,234.5 305.5,234.5C 304.5,234.5 303.5,234.5 302.5,234.5C 300.833,234.5 299.167,234.5 297.5,234.5C 296.5,234.5 295.5,234.5 294.5,234.5C 293.833,234.5 293.5,234.167 293.5,233.5C 293.5,195.167 293.5,156.833 293.5,118.5C 293.5,117.833 293.833,117.5 294.5,117.5 Z"/></g>
<g><path style="opacity:0.043" fill="#00371c" d="M 292.5,118.5 C 292.5,156.833 292.5,195.167 292.5,233.5C 292.153,199.449 291.153,165.449 289.5,131.5C 289.5,129.833 289.5,128.167 289.5,126.5C 290.29,127.609 290.79,128.942 291,130.5C 291.176,126.312 291.676,122.312 292.5,118.5 Z"/></g>
<g><path style="opacity:0.055" fill="#003f21" d="M 275.5,131.5 C 276.833,143.167 276.833,154.833 275.5,166.5C 275.158,165.662 274.492,165.328 273.5,165.5C 275.444,154.42 276.111,143.087 275.5,131.5 Z"/></g>
<g><path style="opacity:0.027" fill="#3a3a3a" d="M 233.5,220.5 C 233.737,219.209 233.404,218.209 232.5,217.5C 232.5,217.167 232.5,216.833 232.5,216.5C 233.498,183.004 233.832,149.337 233.5,115.5C 234.804,146.652 234.804,181.652 233.5,220.5 Z"/></g>
<g><path style="opacity:0.008" fill="#3c3c3c" d="M 199.5,144.5 C 201.5,147.833 203.5,151.167 205.5,154.5C 207.346,156.03 208.346,158.03 208.5,160.5C 209.354,162.035 209.354,163.368 208.5,164.5C 208.5,163.833 208.167,163.5 207.5,163.5C 207.5,163.167 207.5,162.833 207.5,162.5C 207.672,161.508 207.338,160.842 206.5,160.5C 206.672,159.508 206.338,158.842 205.5,158.5C 204.833,158.5 204.5,158.167 204.5,157.5C 204.5,157.167 204.5,156.833 204.5,156.5C 203.833,156.5 203.5,156.167 203.5,155.5C 203.5,155.167 203.5,154.833 203.5,154.5C 202.833,154.5 202.5,154.167 202.5,153.5C 201.833,153.5 201.5,153.167 201.5,152.5C 202.833,152.167 202.833,151.833 201.5,151.5C 200.833,151.5 200.5,151.167 200.5,150.5C 201.833,150.167 201.833,149.833 200.5,149.5C 200.5,149.167 200.5,148.833 200.5,148.5C 199.833,148.5 199.5,148.167 199.5,147.5C 199.5,147.167 199.5,146.833 199.5,146.5C 199.5,145.833 199.5,145.167 199.5,144.5 Z"/></g>
<g><path style="opacity:0.012" fill="#090909" d="M 359.5,219.5 C 358.167,219.5 356.833,219.5 355.5,219.5C 355.832,203.755 355.499,188.755 354.5,174.5C 354.167,174.5 353.833,174.5 353.5,174.5C 353.335,171.15 353.502,167.817 354,164.5C 357.601,165.82 361.101,165.82 364.5,164.5C 365.324,160.688 365.824,156.688 366,152.5C 368.024,156.643 369.524,160.977 370.5,165.5C 369.835,172.18 366.335,176.513 360,178.5C 359.5,192.163 359.333,205.829 359.5,219.5 Z"/></g>
<g><path style="opacity:0.008" fill="#006734" d="M 259.5,177.5 C 258.833,177.5 258.5,177.833 258.5,178.5C 257.833,178.5 257.5,178.167 257.5,177.5C 258.548,175.067 259.214,175.067 259.5,177.5 Z"/></g>
<g><path style="opacity:0.027" fill="#5c5c5c" d="M 359.5,219.5 C 361.527,219.338 363.527,219.505 365.5,220C 361.514,220.499 357.514,220.666 353.5,220.5C 353.5,220.167 353.5,219.833 353.5,219.5C 354.496,204.676 354.829,189.676 354.5,174.5C 355.499,188.755 355.832,203.755 355.5,219.5C 356.833,219.5 358.167,219.5 359.5,219.5 Z"/></g>
<g><path style="opacity:0.03" fill="#06180d" d="M 275.5,178.5 C 276.833,193.167 276.833,207.833 275.5,222.5C 275.167,221.167 274.833,221.167 274.5,222.5C 273.833,222.5 273.5,222.833 273.5,223.5C 272.833,223.5 272.167,223.5 271.5,223.5C 271.5,222.833 271.167,222.5 270.5,222.5C 270.828,210.655 270.495,198.988 269.5,187.5C 269.812,183.166 271.812,180.166 275.5,178.5 Z"/></g>
<g><path style="opacity:0.039" fill="#0f0f0f" d="M 215.5,191.5 C 216.816,200.735 216.816,210.068 215.5,219.5C 215.167,219.5 214.833,219.5 214.5,219.5C 214.5,210.833 214.5,202.167 214.5,193.5C 215.338,193.158 215.672,192.492 215.5,191.5 Z"/></g>
<g><path style="opacity:0.051" fill="#20402c" d="M 257.5,177.5 C 257.5,178.167 257.833,178.5 258.5,178.5C 258.833,178.5 259.167,178.5 259.5,178.5C 259.5,179.167 259.167,179.5 258.5,179.5C 257.662,179.842 257.328,180.508 257.5,181.5C 256.167,182.5 256.167,183.5 257.5,184.5C 257.5,185.167 257.167,185.5 256.5,185.5C 255.504,198.99 255.171,212.656 255.5,226.5C 254.691,224.972 254.024,223.306 253.5,221.5C 253.538,208.458 253.538,195.624 253.5,183C 254.977,181.188 256.31,179.355 257.5,177.5 Z"/></g>
<g><path style="opacity:0.012" fill="#999999" d="M 368.5,226.5 C 367.833,226.5 367.5,226.833 367.5,227.5C 367.795,229.735 367.461,231.735 366.5,233.5C 366.334,229.486 366.501,225.486 367,221.5C 367.352,223.247 367.852,224.914 368.5,226.5 Z"/></g>
<g><path style="opacity:0.008" fill="#5b5b5b" d="M 256.5,244.5 C 268.167,244.5 279.833,244.5 291.5,244.5C 291.833,244.5 292.167,244.5 292.5,244.5C 297.5,244.5 302.5,244.5 307.5,244.5C 308.167,244.5 308.833,244.5 309.5,244.5C 315.842,244.334 322.175,244.5 328.5,245C 329.056,245.383 329.389,245.883 329.5,246.5C 328.833,246.5 328.167,246.5 327.5,246.5C 303.833,245.833 280.167,245.167 256.5,244.5 Z"/></g>
<g><path style="opacity:0.82" fill="#fdfdfd" d="M 210.5,246.5 C 249.5,246.5 288.5,246.5 327.5,246.5C 327.842,247.338 328.508,247.672 329.5,247.5C 329.714,249.144 329.38,250.644 328.5,252C 288.835,252.5 249.168,252.667 209.5,252.5C 208.135,250.249 208.469,248.249 210.5,246.5 Z"/></g>
<g><path style="opacity:0.008" fill="#fdfdfd" d="M 206.5,248.5 C 207.525,248.897 207.692,249.563 207,250.5C 206.536,249.906 206.369,249.239 206.5,248.5 Z"/></g>
<g><path style="opacity:0.01" fill="#fcfcfc" d="M 330.5,247.5 C 331.598,248.601 331.765,249.934 331,251.5C 330.51,250.207 330.343,248.873 330.5,247.5 Z"/></g>
<g><path style="opacity:0.004" fill="#fefffe" d="M 209.5,252.5 C 209.5,252.833 209.5,253.167 209.5,253.5C 208.83,253.019 208.83,252.685 209.5,252.5 Z"/></g>
<g><path style="opacity:0.932" fill="#fefefe" d="M 209.5,253.5 C 248.5,253.5 287.5,253.5 326.5,253.5C 326.5,254.5 326.5,255.5 326.5,256.5C 325.662,256.842 325.328,257.508 325.5,258.5C 324.662,258.842 324.328,259.508 324.5,260.5C 323.833,260.5 323.5,260.833 323.5,261.5C 322.833,261.5 322.5,261.833 322.5,262.5C 321.833,262.5 321.5,262.833 321.5,263.5C 320.833,263.5 320.5,263.833 320.5,264.5C 319.833,264.5 319.5,264.833 319.5,265.5C 318.833,265.5 318.5,265.833 318.5,266.5C 317.833,266.5 317.5,266.833 317.5,267.5C 316.508,267.328 315.842,267.662 315.5,268.5C 314.833,268.5 314.5,268.833 314.5,269.5C 313.508,269.328 312.842,269.662 312.5,270.5C 310.973,270.427 309.973,271.094 309.5,272.5C 308.508,272.328 307.842,272.662 307.5,273.5C 305.447,273.402 303.78,274.069 302.5,275.5C 301.209,275.263 300.209,275.596 299.5,276.5C 297.214,276.595 295.214,277.262 293.5,278.5C 291.901,278.232 290.568,278.566 289.5,279.5C 287.585,279.216 285.919,279.549 284.5,280.5C 281.813,280.336 279.146,280.503 276.5,281C 275.663,282.011 275.33,283.178 275.5,284.5C 274.167,284.833 274.167,285.167 275.5,285.5C 275.629,287.216 275.962,288.883 276.5,290.5C 275.662,290.842 275.328,291.508 275.5,292.5C 274.167,293.167 273.167,294.167 272.5,295.5C 271.508,295.328 270.842,295.662 270.5,296.5C 269.5,296.5 268.5,296.5 267.5,296.5C 266.312,295.636 265.145,294.636 264,293.5C 262.378,294.099 260.878,294.766 259.5,295.5C 257.901,295.232 256.568,295.566 255.5,296.5C 253.901,296.232 252.568,296.566 251.5,297.5C 249.901,297.232 248.568,297.566 247.5,298.5C 245.901,298.232 244.568,298.566 243.5,299.5C 241.901,299.232 240.568,299.566 239.5,300.5C 237.901,300.232 236.568,300.566 235.5,301.5C 233.901,301.232 232.568,301.566 231.5,302.5C 216.209,305.407 201.209,309.073 186.5,313.5C 185.167,314.167 185.167,314.833 186.5,315.5C 186.263,316.791 186.596,317.791 187.5,318.5C 187.402,320.553 188.069,322.22 189.5,323.5C 189.402,325.553 190.069,327.22 191.5,328.5C 191.872,332.297 193.206,335.63 195.5,338.5C 195.5,339.167 195.833,339.5 196.5,339.5C 196.842,340.338 197.508,340.672 198.5,340.5C 198.842,341.338 199.508,341.672 200.5,341.5C 205.355,342.343 210.021,344.009 214.5,346.5C 215.11,348.434 216.11,350.101 217.5,351.5C 217.5,355.5 217.5,359.5 217.5,363.5C 184.167,363.5 150.833,363.5 117.5,363.5C 116.185,348.979 122.852,341.479 137.5,341C 140.596,338.971 142.262,336.138 142.5,332.5C 143.931,331.22 144.598,329.553 144.5,327.5C 145.404,326.791 145.737,325.791 145.5,324.5C 146.931,323.22 147.598,321.553 147.5,319.5C 148.404,318.791 148.737,317.791 148.5,316.5C 149.338,316.158 149.672,315.492 149.5,314.5C 150.404,313.791 150.737,312.791 150.5,311.5C 151.338,311.158 151.672,310.492 151.5,309.5C 152.404,308.791 152.737,307.791 152.5,306.5C 153.404,305.791 153.737,304.791 153.5,303.5C 154.338,303.158 154.672,302.492 154.5,301.5C 155.404,300.791 155.737,299.791 155.5,298.5C 156.404,297.791 156.737,296.791 156.5,295.5C 157.931,294.22 158.598,292.553 158.5,290.5C 160.167,289.5 161.5,288.167 162.5,286.5C 167.86,284.548 172.526,285.548 176.5,289.5C 176.328,290.492 176.662,291.158 177.5,291.5C 177.351,292.552 177.517,293.552 178,294.5C 179.44,292.954 181.273,292.121 183.5,292C 210.725,289.812 237.725,286.978 264.5,283.5C 265.774,282.811 265.774,281.977 264.5,281C 259.166,280.433 253.833,279.933 248.5,279.5C 247.432,278.566 246.099,278.232 244.5,278.5C 243.791,277.596 242.791,277.263 241.5,277.5C 239.786,276.262 237.786,275.595 235.5,275.5C 228.022,271.869 221.189,267.202 215,261.5C 213.725,259.283 212.725,256.949 212,254.5C 211.118,258.042 210.285,257.708 209.5,253.5 Z M 170.5,302.5 C 169.761,302.369 169.094,302.536 168.5,303C 169.337,304.011 169.67,305.178 169.5,306.5C 168.178,306.67 167.011,306.337 166,305.5C 165.536,306.094 165.369,306.761 165.5,307.5C 164.167,305.833 164.167,304.167 165.5,302.5C 167.167,301.167 168.833,301.167 170.5,302.5 Z"/></g>
<g><path style="opacity:0.012" fill="#fefffe" d="M 327.5,253.5 C 328.525,253.897 328.692,254.563 328,255.5C 327.536,254.906 327.369,254.239 327.5,253.5 Z"/></g>
<g><path style="opacity:0.008" fill="#fefffe" d="M 326.5,256.5 C 327.833,257.167 327.833,257.833 326.5,258.5C 326.5,257.833 326.5,257.167 326.5,256.5 Z"/></g>
<g><path style="opacity:0.006" fill="#fefffe" d="M 325.5,258.5 C 325.833,258.5 326.167,258.5 326.5,258.5C 326.672,259.492 326.338,260.158 325.5,260.5C 325.5,259.833 325.5,259.167 325.5,258.5 Z"/></g>
<g><path style="opacity:0.012" fill="#fefffe" d="M 324.5,260.5 C 324.833,260.5 325.167,260.5 325.5,260.5C 325.315,261.17 324.981,261.17 324.5,260.5 Z"/></g>
<g><path style="opacity:0.012" fill="#fefffe" d="M 323.5,261.5 C 323.833,261.5 324.167,261.5 324.5,261.5C 324.315,262.17 323.981,262.17 323.5,261.5 Z"/></g>
<g><path style="opacity:1" fill="#2d2d2d" d="M 284.5,260.5 C 283.833,264.833 283.167,269.167 282.5,273.5C 282.5,269.167 282.5,264.833 282.5,260.5C 278.75,261.026 275.584,260.026 273,257.5C 271.029,257.468 269.529,258.302 268.5,260C 266.527,260.495 264.527,260.662 262.5,260.5C 262.5,264.833 262.5,269.167 262.5,273.5C 262.5,273.833 262.5,274.167 262.5,274.5C 262.5,274.833 262.5,275.167 262.5,275.5C 261.883,275.389 261.383,275.056 261,274.5C 260.333,269.833 260.333,265.167 261,260.5C 261.5,260 262,259.5 262.5,259C 266.201,258.491 269.534,257.324 272.5,255.5C 276.427,257.413 280.427,259.08 284.5,260.5 Z"/></g>
<g><path style="opacity:1" fill="#f3f3f3" d="M 282.5,273.5 C 279.941,273.802 277.607,273.468 275.5,272.5C 278.144,270.484 278.977,267.817 278,264.5C 275.79,261.71 272.956,260.877 269.5,262C 265.324,265.947 265.657,269.447 270.5,272.5C 268.052,273.473 265.385,273.806 262.5,273.5C 262.5,269.167 262.5,264.833 262.5,260.5C 264.527,260.662 266.527,260.495 268.5,260C 269.529,258.302 271.029,257.468 273,257.5C 275.584,260.026 278.75,261.026 282.5,260.5C 282.5,264.833 282.5,269.167 282.5,273.5 Z"/></g>
<g><path style="opacity:0.008" fill="#fefffe" d="M 322.5,262.5 C 322.833,262.5 323.167,262.5 323.5,262.5C 323.315,263.17 322.981,263.17 322.5,262.5 Z"/></g>
<g><path style="opacity:0.004" fill="#fefffe" d="M 321.5,263.5 C 321.833,263.5 322.167,263.5 322.5,263.5C 322.315,264.17 321.981,264.17 321.5,263.5 Z"/></g>
<g><path style="opacity:0.004" fill="#fefffe" d="M 320.5,264.5 C 320.833,264.5 321.167,264.5 321.5,264.5C 321.315,265.17 320.981,265.17 320.5,264.5 Z"/></g>
<g><path style="opacity:0.012" fill="#fefffe" d="M 319.5,265.5 C 319.833,265.5 320.167,265.5 320.5,265.5C 320.315,266.17 319.981,266.17 319.5,265.5 Z"/></g>
<g><path style="opacity:0.012" fill="#fefffe" d="M 318.5,266.5 C 318.833,266.5 319.167,266.5 319.5,266.5C 319.315,267.17 318.981,267.17 318.5,266.5 Z"/></g>
<g><path style="opacity:0.012" fill="#fefffe" d="M 317.5,267.5 C 317.833,267.5 318.167,267.5 318.5,267.5C 318.315,268.17 317.981,268.17 317.5,267.5 Z"/></g>
<g><path style="opacity:0.004" fill="#fefffe" d="M 315.5,269.5 C 315.5,269.167 315.5,268.833 315.5,268.5C 316.167,268.5 316.833,268.5 317.5,268.5C 317.158,269.338 316.492,269.672 315.5,269.5 Z"/></g>
<g><path style="opacity:0.016" fill="#fefffe" d="M 314.5,269.5 C 314.833,269.5 315.167,269.5 315.5,269.5C 315.315,270.17 314.981,270.17 314.5,269.5 Z"/></g>
<g><path style="opacity:0.008" fill="#fefffe" d="M 312.5,271.5 C 312.5,271.167 312.5,270.833 312.5,270.5C 313.167,270.5 313.833,270.5 314.5,270.5C 314.158,271.338 313.492,271.672 312.5,271.5 Z"/></g>
<g><path style="opacity:0.008" fill="#fefffe" d="M -0.5,271.5 C 0.166667,271.5 0.5,271.833 0.5,272.5C 0.166667,272.167 -0.166667,271.833 -0.5,271.5 Z"/></g>
<g><path style="opacity:0.008" fill="#fefffe" d="M 118.5,271.5 C 119.833,272.167 119.833,272.167 118.5,271.5 Z"/></g>
<g><path style="opacity:1" fill="#1b1b1b" d="M 275.5,272.5 C 273.833,273.833 272.167,273.833 270.5,272.5C 265.657,269.447 265.324,265.947 269.5,262C 272.956,260.877 275.79,261.71 278,264.5C 278.977,267.817 278.144,270.484 275.5,272.5 Z"/></g>
<g><path style="opacity:1" fill="#ededed" d="M 271.5,262.5 C 276.317,263.237 277.65,265.904 275.5,270.5C 271.559,272.437 269.226,271.271 268.5,267C 268.557,264.791 269.557,263.291 271.5,262.5 Z"/></g>
<g><path style="opacity:0.012" fill="#fefffe" d="M 312.5,271.5 C 311.833,272.167 311.833,272.167 312.5,271.5 Z"/></g>
<g><path style="opacity:0.744" fill="#fefefe" d="M 0.5,272.5 C 39.8333,272.5 79.1667,272.5 118.5,272.5C 118.833,273.5 119.5,274.167 120.5,274.5C 120.461,275.583 120.127,276.583 119.5,277.5C 79.4331,278.827 39.4331,278.827 -0.5,277.5C -0.5,276.167 -0.5,274.833 -0.5,273.5C 0.166667,273.5 0.5,273.167 0.5,272.5 Z"/></g>
<g><path style="opacity:0.012" fill="#fefffe" d="M 309.5,272.5 C 310.833,273.167 310.833,273.167 309.5,272.5 Z"/></g>
<g><path style="opacity:0.008" fill="#fefffe" d="M 121.5,274.5 C 120.833,273.167 120.833,273.167 121.5,274.5 Z"/></g>
<g><path style="opacity:1" fill="#9a9a9a" d="M 270.5,272.5 C 272.167,273.833 273.833,273.833 275.5,272.5C 277.607,273.468 279.941,273.802 282.5,273.5C 276.021,274.491 269.354,274.824 262.5,274.5C 262.5,274.167 262.5,273.833 262.5,273.5C 265.385,273.806 268.052,273.473 270.5,272.5 Z"/></g>
<g><path style="opacity:0.008" fill="#fefefe" d="M 307.5,273.5 C 308.167,273.5 308.833,273.5 309.5,273.5C 308.833,274.833 308.167,274.833 307.5,273.5 Z"/></g>
<g><path style="opacity:0.004" fill="#fefffe" d="M 121.5,274.5 C 122.525,274.897 122.692,275.563 122,276.5C 121.536,275.906 121.369,275.239 121.5,274.5 Z"/></g>
<g><path style="opacity:1" fill="#020202" d="M 284.5,260.5 C 284.803,265.43 284.469,270.263 283.5,275C 276.508,275.5 269.508,275.666 262.5,275.5C 262.5,275.167 262.5,274.833 262.5,274.5C 269.354,274.824 276.021,274.491 282.5,273.5C 283.167,269.167 283.833,264.833 284.5,260.5 Z"/></g>
<g><path style="opacity:0.012" fill="#fdfefd" d="M 305.5,274.5 C 306.833,275.167 306.833,275.167 305.5,274.5 Z"/></g>
<g><path style="opacity:0.008" fill="#fefffe" d="M 235.5,275.5 C 235.103,276.525 234.437,276.692 233.5,276C 234.094,275.536 234.761,275.369 235.5,275.5 Z"/></g>
<g><path style="opacity:0.008" fill="#fefffe" d="M 302.5,276.5 C 302.5,276.167 302.5,275.833 302.5,275.5C 305.167,275.833 305.167,276.167 302.5,276.5 Z"/></g>
<g><path style="opacity:0.007" fill="#fefffe" d="M 299.5,277.5 C 299.5,277.167 299.5,276.833 299.5,276.5C 300.5,276.5 301.5,276.5 302.5,276.5C 301.791,277.404 300.791,277.737 299.5,277.5 Z"/></g>
<g><path style="opacity:0.004" fill="#fefffe" d="M 120.5,277.5 C 121.833,278.167 121.833,278.167 120.5,277.5 Z"/></g>
<g><path style="opacity:0.008" fill="#fefefe" d="M 241.5,277.5 C 240.749,278.573 239.749,278.74 238.5,278C 239.448,277.517 240.448,277.351 241.5,277.5 Z"/></g>
<g><path style="opacity:0.01" fill="#fefffe" d="M 299.5,277.5 C 299.103,278.525 298.437,278.692 297.5,278C 298.094,277.536 298.761,277.369 299.5,277.5 Z"/></g>
<g><path style="opacity:0.012" fill="#fefffe" d="M 244.5,278.5 C 244.103,279.525 243.437,279.692 242.5,279C 243.094,278.536 243.761,278.369 244.5,278.5 Z"/></g>
<g><path style="opacity:0.007" fill="#fefffe" d="M 293.5,278.5 C 294.552,278.351 295.552,278.517 296.5,279C 295.251,279.74 294.251,279.573 293.5,278.5 Z"/></g>
<g><path style="opacity:0.014" fill="#fefffe" d="M 0.5,279.5 C 1.57346,280.251 1.74012,281.251 1,282.5C 0.517215,281.552 0.350549,280.552 0.5,279.5 Z"/></g>
<g><path style="opacity:0.923" fill="#fefefe" d="M 116.5,283.5 C 115.662,283.842 115.328,284.508 115.5,285.5C 113.167,288.5 110.5,291.167 107.5,293.5C 106.833,293.5 106.5,293.833 106.5,294.5C 105.508,294.328 104.842,294.662 104.5,295.5C 103.833,295.5 103.5,295.833 103.5,296.5C 102.508,296.328 101.842,296.662 101.5,297.5C 100.508,297.328 99.8417,297.662 99.5,298.5C 98.5084,298.328 97.8417,298.662 97.5,299.5C 96.5084,299.328 95.8417,299.662 95.5,300.5C 93.4471,300.402 91.7804,301.069 90.5,302.5C 89.209,302.263 88.209,302.596 87.5,303.5C 84.5718,303.565 81.9052,304.232 79.5,305.5C 77.5853,305.216 75.9187,305.549 74.5,306.5C 70.8494,306.746 67.3494,306.746 64,306.5C 63.51,307.793 63.3433,309.127 63.5,310.5C 65.099,310.768 66.4324,310.434 67.5,309.5C 69.4147,309.784 71.0813,309.451 72.5,308.5C 74.7354,308.795 76.7354,308.461 78.5,307.5C 80.4147,307.784 82.0813,307.451 83.5,306.5C 87.4248,306.57 91.0915,305.903 94.5,304.5C 98.4248,304.57 102.091,303.903 105.5,302.5C 109.425,302.57 113.091,301.903 116.5,300.5C 122.422,300.236 128.089,299.236 133.5,297.5C 137.425,297.57 141.091,296.903 144.5,295.5C 148.484,295.531 152.317,294.864 156,293.5C 156.464,294.094 156.631,294.761 156.5,295.5C 155.596,296.209 155.263,297.209 155.5,298.5C 154.596,299.209 154.263,300.209 154.5,301.5C 153.662,301.842 153.328,302.508 153.5,303.5C 152.596,304.209 152.263,305.209 152.5,306.5C 151.596,307.209 151.263,308.209 151.5,309.5C 150.662,309.842 150.328,310.508 150.5,311.5C 149.596,312.209 149.263,313.209 149.5,314.5C 120.976,315.953 92.6424,317.953 64.5,320.5C 63.8333,320.5 63.5,320.833 63.5,321.5C 62.5084,321.328 61.8417,321.662 61.5,322.5C 60.1667,322.5 58.8333,322.5 57.5,322.5C 52.5105,319.692 51.5105,315.859 54.5,311C 53.8333,309.667 53.1667,308.333 52.5,307C 45.4332,306.153 38.4332,304.986 31.5,303.5C 30.791,302.596 29.791,302.263 28.5,302.5C 27.2196,301.069 25.5529,300.402 23.5,300.5C 21.1515,298.659 18.4848,297.326 15.5,296.5C 11.8333,293.167 8.16667,289.833 4.5,286.5C 3.43363,284.299 2.76697,281.965 2.5,279.5C 40.5,279.5 78.5,279.5 116.5,279.5C 116.5,280.833 116.5,282.167 116.5,283.5 Z M 87.5,303.5 C 86.7375,304.268 85.7375,304.768 84.5,305C 87.8004,304.954 91.1337,304.788 94.5,304.5C 91.0915,305.903 87.4248,306.57 83.5,306.5C 82.4324,305.566 81.099,305.232 79.5,305.5C 81.9052,304.232 84.5718,303.565 87.5,303.5 Z M 74.5,306.5 C 75.9187,305.549 77.5853,305.216 79.5,305.5C 80.5676,306.434 81.901,306.768 83.5,306.5C 82.0813,307.451 80.4147,307.784 78.5,307.5C 77.4324,306.566 76.099,306.232 74.5,306.5 Z M 74.5,306.5 C 75.5676,307.434 76.901,307.768 78.5,307.5C 76.7354,308.461 74.7354,308.795 72.5,308.5C 69.9321,307.357 67.2654,307.524 64.5,309C 65.448,309.483 66.448,309.649 67.5,309.5C 66.4324,310.434 65.099,310.768 63.5,310.5C 63.3433,309.127 63.51,307.793 64,306.5C 67.3494,306.746 70.8494,306.746 74.5,306.5 Z"/></g>
<g><path style="opacity:0.016" fill="#fefffe" d="M 117.5,279.5 C 118.573,280.251 118.74,281.251 118,282.5C 117.517,281.552 117.351,280.552 117.5,279.5 Z"/></g>
<g><path style="opacity:0.01" fill="#fefefe" d="M 248.5,279.5 C 247.749,280.573 246.749,280.74 245.5,280C 246.448,279.517 247.448,279.351 248.5,279.5 Z"/></g>
<g><path style="opacity:0.009" fill="#fefffe" d="M 289.5,279.5 C 290.552,279.351 291.552,279.517 292.5,280C 291.251,280.74 290.251,280.573 289.5,279.5 Z"/></g>
<g><path style="opacity:0.01" fill="#fefefe" d="M 249.5,281.5 C 250.601,280.402 251.934,280.235 253.5,281C 252.207,281.49 250.873,281.657 249.5,281.5 Z"/></g>
<g><path style="opacity:0.009" fill="#fefffe" d="M 284.5,280.5 C 285.873,280.343 287.207,280.51 288.5,281C 286.934,281.765 285.601,281.598 284.5,280.5 Z"/></g>
<g><path style="opacity:0.009" fill="#fefefe" d="M 264.5,283.5 C 261.478,283.196 258.478,282.696 255.5,282C 258.863,281.073 261.863,281.573 264.5,283.5 Z"/></g>
<g><path style="opacity:0.01" fill="#fefefe" d="M 277.5,282.5 C 279.288,281.378 281.288,281.211 283.5,282C 281.527,282.495 279.527,282.662 277.5,282.5 Z"/></g>
<g><path style="opacity:0.012" fill="#fefffe" d="M 1.5,283.5 C 2.83333,284.167 2.83333,284.167 1.5,283.5 Z"/></g>
<g><path style="opacity:0.008" fill="#fefefe" d="M 116.5,283.5 C 117.833,284.167 117.833,284.833 116.5,285.5C 116.5,284.833 116.5,284.167 116.5,283.5 Z"/></g>
<g><path style="opacity:0.011" fill="#fefefe" d="M 164.5,284.5 C 166.628,283.371 168.961,283.204 171.5,284C 169.19,284.497 166.857,284.663 164.5,284.5 Z"/></g>
<g><path style="opacity:0.009" fill="#fefffe" d="M 250.5,284.5 C 252.966,283.366 255.633,283.199 258.5,284C 255.854,284.497 253.187,284.664 250.5,284.5 Z"/></g>
<g><path style="opacity:0.008" fill="#fdfefd" d="M 162.5,284.5 C 163.833,285.167 163.833,285.167 162.5,284.5 Z"/></g>
<g><path style="opacity:0.009" fill="#fefefe" d="M 239.5,285.5 C 241.966,284.366 244.633,284.199 247.5,285C 244.854,285.497 242.187,285.664 239.5,285.5 Z"/></g>
<g><path style="opacity:0.008" fill="#fefffe" d="M 275.5,284.5 C 276.167,284.5 276.5,284.833 276.5,285.5C 276.167,285.167 275.833,284.833 275.5,284.5 Z"/></g>
<g><path style="opacity:0.012" fill="#fefffe" d="M 115.5,285.5 C 115.833,285.5 116.167,285.5 116.5,285.5C 116.315,286.17 115.981,286.17 115.5,285.5 Z"/></g>
<g><path style="opacity:0.008" fill="#fefffe" d="M 162.5,285.5 C 162.5,285.833 162.5,286.167 162.5,286.5C 161.83,286.019 161.83,285.685 162.5,285.5 Z"/></g>
<g><path style="opacity:0.009" fill="#fefffe" d="M 228.5,286.5 C 230.966,285.366 233.633,285.199 236.5,286C 233.854,286.497 231.187,286.664 228.5,286.5 Z"/></g>
<g><path style="opacity:0.008" fill="#fefffe" d="M 276.5,285.5 C 277.525,285.897 277.692,286.563 277,287.5C 276.536,286.906 276.369,286.239 276.5,285.5 Z"/></g>
<g><path style="opacity:0.012" fill="#fdfefd" d="M 4.5,286.5 C 3.83333,287.167 3.83333,287.167 4.5,286.5 Z"/></g>
<g><path style="opacity:0.004" fill="#fefffe" d="M 159.5,286.5 C 160.833,287.167 160.833,287.167 159.5,286.5 Z"/></g>
<g><path style="opacity:0.01" fill="#fefffe" d="M 218.5,287.5 C 220.628,286.371 222.961,286.204 225.5,287C 223.19,287.497 220.857,287.663 218.5,287.5 Z"/></g>
<g><path style="opacity:0.004" fill="#fefffe" d="M 159.5,287.5 C 158.833,288.167 158.833,288.167 159.5,287.5 Z"/></g>
<g><path style="opacity:0.009" fill="#fefffe" d="M 207.5,288.5 C 209.966,287.366 212.633,287.199 215.5,288C 212.854,288.497 210.187,288.664 207.5,288.5 Z"/></g>
<g><path style="opacity:0.004" fill="#fdfefd" d="M 5.5,289.5 C 4.83333,288.167 4.83333,288.167 5.5,289.5 Z"/></g>
<g><path style="opacity:0.008" fill="#fefffe" d="M 176.5,288.5 C 177.833,289.167 177.833,289.167 176.5,288.5 Z"/></g>
<g><path style="opacity:0.009" fill="#fefefe" d="M 196.5,289.5 C 198.966,288.366 201.633,288.199 204.5,289C 201.854,289.497 199.187,289.664 196.5,289.5 Z"/></g>
<g><path style="opacity:0.008" fill="#fefffe" d="M 5.5,289.5 C 6.83333,290.167 6.83333,290.167 5.5,289.5 Z"/></g>
<g><path style="opacity:0.012" fill="#fdfefd" d="M 158.5,290.5 C 157.833,289.167 157.833,289.167 158.5,290.5 Z"/></g>
<g><path style="opacity:0.009" fill="#fefefe" d="M 185.5,290.5 C 187.966,289.366 190.633,289.199 193.5,290C 190.854,290.497 188.187,290.664 185.5,290.5 Z"/></g>
<g><path style="opacity:0.008" fill="#fefefe" d="M 157.5,290.5 C 157.631,291.239 157.464,291.906 157,292.5C 156.308,291.563 156.475,290.897 157.5,290.5 Z"/></g>
<g><path style="opacity:0.012" fill="#fdfefd" d="M 177.5,290.5 C 178.833,291.167 178.833,291.167 177.5,290.5 Z"/></g>
<g><path style="opacity:0.013" fill="#fefffe" d="M 179.5,291.5 C 180.251,290.427 181.251,290.26 182.5,291C 181.552,291.483 180.552,291.649 179.5,291.5 Z"/></g>
<g><path style="opacity:0.008" fill="#fefffe" d="M 276.5,290.5 C 277.833,291.167 277.833,291.833 276.5,292.5C 276.5,291.833 276.5,291.167 276.5,290.5 Z"/></g>
<g><path style="opacity:0.01" fill="#fefffe" d="M 150.5,293.5 C 151.601,292.402 152.934,292.235 154.5,293C 153.207,293.49 151.873,293.657 150.5,293.5 Z"/></g>
<g><path style="opacity:0.004" fill="#fefffe" d="M 275.5,292.5 C 275.833,292.5 276.167,292.5 276.5,292.5C 276.315,293.17 275.981,293.17 275.5,292.5 Z"/></g>
<g><path style="opacity:0.016" fill="#fefffe" d="M 107.5,293.5 C 108.833,294.167 108.833,294.167 107.5,293.5 Z"/></g>
<g><path style="opacity:0.009" fill="#fefefe" d="M 145.5,294.5 C 146.601,293.402 147.934,293.235 149.5,294C 148.207,294.49 146.873,294.657 145.5,294.5 Z"/></g>
<g><path style="opacity:0.012" fill="#fefffe" d="M 106.5,294.5 C 106.833,294.5 107.167,294.5 107.5,294.5C 107.315,295.17 106.981,295.17 106.5,294.5 Z"/></g>
<g><path style="opacity:0.01" fill="#fefffe" d="M 144.5,295.5 C 143.127,295.657 141.793,295.49 140.5,295C 142.066,294.235 143.399,294.402 144.5,295.5 Z"/></g>
<g><path style="opacity:0.004" fill="#fefffe" d="M 274.5,294.5 C 275.833,295.167 275.833,295.167 274.5,294.5 Z"/></g>
<g><path style="opacity:0.006" fill="#fefefe" d="M 104.5,296.5 C 104.5,296.167 104.5,295.833 104.5,295.5C 105.167,295.5 105.833,295.5 106.5,295.5C 106.158,296.338 105.492,296.672 104.5,296.5 Z"/></g>
<g><path style="opacity:0.009" fill="#fefffe" d="M 134.5,296.5 C 135.601,295.402 136.934,295.235 138.5,296C 137.207,296.49 135.873,296.657 134.5,296.5 Z"/></g>
<g><path style="opacity:0.009" fill="#fefffe" d="M 259.5,295.5 C 260.552,295.351 261.552,295.517 262.5,296C 261.251,296.74 260.251,296.573 259.5,295.5 Z"/></g>
<g><path style="opacity:0.008" fill="#fefffe" d="M 272.5,295.5 C 273.833,296.167 273.833,296.167 272.5,295.5 Z"/></g>
<g><path style="opacity:0.012" fill="#fefffe" d="M 15.5,296.5 C 14.8333,297.167 14.8333,297.167 15.5,296.5 Z"/></g>
<g><path style="opacity:0.012" fill="#fdfefd" d="M 103.5,296.5 C 103.833,296.5 104.167,296.5 104.5,296.5C 104.315,297.17 103.981,297.17 103.5,296.5 Z"/></g>
<g><path style="opacity:0.009" fill="#fefffe" d="M 133.5,297.5 C 132.127,297.657 130.793,297.49 129.5,297C 131.066,296.235 132.399,296.402 133.5,297.5 Z"/></g>
<g><path style="opacity:0.01" fill="#fefffe" d="M 255.5,296.5 C 256.552,296.351 257.552,296.517 258.5,297C 257.251,297.74 256.251,297.573 255.5,296.5 Z"/></g>
<g><path style="opacity:0.01" fill="#fefffe" d="M 267.5,296.5 C 267.103,297.525 266.437,297.692 265.5,297C 266.094,296.536 266.761,296.369 267.5,296.5 Z"/></g>
<g><path style="opacity:0.008" fill="#fefefe" d="M 270.5,296.5 C 271.167,296.5 271.833,296.5 272.5,296.5C 271.833,297.833 271.167,297.833 270.5,296.5 Z"/></g>
<g><path style="opacity:0.016" fill="#fefffe" d="M 101.5,297.5 C 102.833,298.167 102.833,298.167 101.5,297.5 Z"/></g>
<g><path style="opacity:0.01" fill="#fefefe" d="M 123.5,298.5 C 124.601,297.402 125.934,297.235 127.5,298C 126.207,298.49 124.873,298.657 123.5,298.5 Z"/></g>
<g><path style="opacity:0.008" fill="#fefefe" d="M 251.5,297.5 C 252.552,297.351 253.552,297.517 254.5,298C 253.251,298.74 252.251,298.573 251.5,297.5 Z"/></g>
<g><path style="opacity:0.008" fill="#fefefe" d="M 99.5,299.5 C 99.5,299.167 99.5,298.833 99.5,298.5C 100.167,298.5 100.833,298.5 101.5,298.5C 101.158,299.338 100.492,299.672 99.5,299.5 Z"/></g>
<g><path style="opacity:0.01" fill="#fefffe" d="M 117.5,299.5 C 118.601,298.402 119.934,298.235 121.5,299C 120.207,299.49 118.873,299.657 117.5,299.5 Z"/></g>
<g><path style="opacity:0.008" fill="#fefffe" d="M 247.5,298.5 C 248.552,298.351 249.552,298.517 250.5,299C 249.251,299.74 248.251,299.573 247.5,298.5 Z"/></g>
<g><path style="opacity:0.01" fill="#fefffe" d="M 97.5,300.5 C 97.5,300.167 97.5,299.833 97.5,299.5C 98.1667,299.5 98.8333,299.5 99.5,299.5C 99.1583,300.338 98.4916,300.672 97.5,300.5 Z"/></g>
<g><path style="opacity:0.01" fill="#fefffe" d="M 116.5,300.5 C 115.127,300.657 113.793,300.49 112.5,300C 114.066,299.235 115.399,299.402 116.5,300.5 Z"/></g>
<g><path style="opacity:0.009" fill="#fefffe" d="M 243.5,299.5 C 244.552,299.351 245.552,299.517 246.5,300C 245.251,300.74 244.251,300.573 243.5,299.5 Z"/></g>
<g><path style="opacity:0.008" fill="#fefffe" d="M 23.5,300.5 C 23.1034,301.525 22.4368,301.692 21.5,301C 22.0944,300.536 22.7611,300.369 23.5,300.5 Z"/></g>
<g><path style="opacity:0.008" fill="#fefefe" d="M 95.5,300.5 C 96.1667,300.5 96.8333,300.5 97.5,300.5C 96.8333,301.833 96.1667,301.833 95.5,300.5 Z"/></g>
<g><path style="opacity:0.01" fill="#fefffe" d="M 106.5,301.5 C 107.601,300.402 108.934,300.235 110.5,301C 109.207,301.49 107.873,301.657 106.5,301.5 Z"/></g>
<g><path style="opacity:0.009" fill="#fefefe" d="M 239.5,300.5 C 240.552,300.351 241.552,300.517 242.5,301C 241.251,301.74 240.251,301.573 239.5,300.5 Z"/></g>
<g><path style="opacity:0.012" fill="#fefffe" d="M 24.5,301.5 C 25.8333,302.167 25.8333,302.167 24.5,301.5 Z"/></g>
<g><path style="opacity:0.012" fill="#fefffe" d="M 93.5,301.5 C 94.8333,302.167 94.8333,302.167 93.5,301.5 Z"/></g>
<g><path style="opacity:0.01" fill="#fefefe" d="M 105.5,302.5 C 104.127,302.657 102.793,302.49 101.5,302C 103.066,301.235 104.399,301.402 105.5,302.5 Z"/></g>
<g><path style="opacity:0.009" fill="#fefffe" d="M 235.5,301.5 C 236.552,301.351 237.552,301.517 238.5,302C 237.251,302.74 236.251,302.573 235.5,301.5 Z"/></g>
<g><path style="opacity:0.01" fill="#fefefe" d="M 28.5,302.5 C 28.1034,303.525 27.4368,303.692 26.5,303C 27.0944,302.536 27.7611,302.369 28.5,302.5 Z"/></g>
<g><path style="opacity:0.011" fill="#fefefe" d="M 90.5,302.5 C 92.153,302.66 93.4863,303.326 94.5,304.5C 91.1337,304.788 87.8004,304.954 84.5,305C 85.7375,304.768 86.7375,304.268 87.5,303.5C 88.791,303.737 89.791,303.404 90.5,302.5 Z"/></g>
<g><path style="opacity:0.01" fill="#fefffe" d="M 95.5,303.5 C 96.6009,302.402 97.9343,302.235 99.5,303C 98.2068,303.49 96.8734,303.657 95.5,303.5 Z"/></g>
<g><path style="opacity:0.013" fill="#fefffe" d="M 170.5,302.5 C 170.5,303.833 170.5,305.167 170.5,306.5C 170.167,306.5 169.833,306.5 169.5,306.5C 169.67,305.178 169.337,304.011 168.5,303C 169.094,302.536 169.761,302.369 170.5,302.5 Z"/></g>
<g><path style="opacity:0.009" fill="#fefefe" d="M 231.5,302.5 C 232.552,302.351 233.552,302.517 234.5,303C 233.251,303.74 232.251,303.573 231.5,302.5 Z"/></g>
<g><path style="opacity:0.01" fill="#fefffe" d="M 31.5,303.5 C 31.1034,304.525 30.4368,304.692 29.5,304C 30.0944,303.536 30.7611,303.369 31.5,303.5 Z"/></g>
<g><path style="opacity:0.009" fill="#fefefe" d="M 227.5,304.5 C 228.251,303.427 229.251,303.26 230.5,304C 229.552,304.483 228.552,304.649 227.5,304.5 Z"/></g>
<g><path style="opacity:0.01" fill="#fefffe" d="M 32.5,305.5 C 32.8966,304.475 33.5632,304.308 34.5,305C 33.9056,305.464 33.2389,305.631 32.5,305.5 Z"/></g>
<g><path style="opacity:0.009" fill="#fefffe" d="M 223.5,305.5 C 224.251,304.427 225.251,304.26 226.5,305C 225.552,305.483 224.552,305.649 223.5,305.5 Z"/></g>
<g><path style="opacity:0.009" fill="#fdfefd" d="M 35.5,306.5 C 36.2506,305.427 37.2506,305.26 38.5,306C 37.552,306.483 36.552,306.649 35.5,306.5 Z"/></g>
<g><path style="opacity:0.014" fill="#fefefe" d="M 169.5,306.5 C 169.5,306.833 169.5,307.167 169.5,307.5C 168.167,307.5 166.833,307.5 165.5,307.5C 165.369,306.761 165.536,306.094 166,305.5C 167.011,306.337 168.178,306.67 169.5,306.5 Z"/></g>
<g><path style="opacity:0.009" fill="#fefefe" d="M 219.5,306.5 C 220.251,305.427 221.251,305.26 222.5,306C 221.552,306.483 220.552,306.649 219.5,306.5 Z"/></g>
<g><path style="opacity:0.01" fill="#fefffe" d="M 39.5,307.5 C 40.6009,306.402 41.9343,306.235 43.5,307C 42.2068,307.49 40.8734,307.657 39.5,307.5 Z"/></g>
<g><path style="opacity:0.009" fill="#fefffe" d="M 215.5,307.5 C 216.251,306.427 217.251,306.26 218.5,307C 217.552,307.483 216.552,307.649 215.5,307.5 Z"/></g>
<g><path style="opacity:0.009" fill="#fefffe" d="M 45.5,308.5 C 47.2884,307.378 49.2884,307.211 51.5,308C 49.5273,308.495 47.5273,308.662 45.5,308.5 Z"/></g>
<g><path style="opacity:0.009" fill="#fefffe" d="M 211.5,308.5 C 212.251,307.427 213.251,307.26 214.5,308C 213.552,308.483 212.552,308.649 211.5,308.5 Z"/></g>
<g><path style="opacity:0.009" fill="#fefefe" d="M 207.5,309.5 C 208.251,308.427 209.251,308.26 210.5,309C 209.552,309.483 208.552,309.649 207.5,309.5 Z"/></g>
<g><path style="opacity:0.009" fill="#fefffe" d="M 203.5,310.5 C 204.251,309.427 205.251,309.26 206.5,310C 205.552,310.483 204.552,310.649 203.5,310.5 Z"/></g>
<g><path style="opacity:0.009" fill="#fefefe" d="M 199.5,311.5 C 200.251,310.427 201.251,310.26 202.5,311C 201.552,311.483 200.552,311.649 199.5,311.5 Z"/></g>
<g><path style="opacity:0.009" fill="#fefffe" d="M 195.5,312.5 C 196.251,311.427 197.251,311.26 198.5,312C 197.552,312.483 196.552,312.649 195.5,312.5 Z"/></g>
<g><path style="opacity:0.009" fill="#fefefe" d="M 191.5,313.5 C 192.251,312.427 193.251,312.26 194.5,313C 193.552,313.483 192.552,313.649 191.5,313.5 Z"/></g>
<g><path style="opacity:0.011" fill="#fefffe" d="M 186.5,313.5 C 191.64,313.584 191.64,314.25 186.5,315.5C 186.5,314.833 186.5,314.167 186.5,313.5 Z"/></g>
<g><path style="opacity:0.004" fill="#fefefe" d="M 50.5,314.5 C 51.525,314.897 51.6917,315.563 51,316.5C 50.5357,315.906 50.369,315.239 50.5,314.5 Z"/></g>
<g><path style="opacity:0.013" fill="#fefffe" d="M 148.5,316.5 C 147.127,316.657 145.793,316.49 144.5,316C 146.066,315.235 147.399,315.402 148.5,316.5 Z"/></g>
<g><path style="opacity:0.009" fill="#fefefe" d="M 127.5,317.5 C 131.311,316.355 135.311,316.188 139.5,317C 135.514,317.499 131.514,317.666 127.5,317.5 Z"/></g>
<g><path style="opacity:0.01" fill="#fefffe" d="M 188.5,318.5 C 188.167,318.5 187.833,318.5 187.5,318.5C 187.833,315.833 188.167,315.833 188.5,318.5 Z"/></g>
<g><path style="opacity:0.009" fill="#fefefe" d="M 110.5,318.5 C 114.311,317.355 118.311,317.188 122.5,318C 118.514,318.499 114.514,318.666 110.5,318.5 Z"/></g>
<g><path style="opacity:0.01" fill="#fefefe" d="M 147.5,319.5 C 147.167,319.5 146.833,319.5 146.5,319.5C 146.833,316.833 147.167,316.833 147.5,319.5 Z"/></g>
<g><path style="opacity:0.009" fill="#fefefe" d="M 92.5,319.5 C 96.6463,318.353 100.98,318.186 105.5,319C 101.179,319.499 96.8461,319.666 92.5,319.5 Z"/></g>
<g><path style="opacity:0.008" fill="#fefffe" d="M 188.5,318.5 C 189.525,318.897 189.692,319.563 189,320.5C 188.536,319.906 188.369,319.239 188.5,318.5 Z"/></g>
<g><path style="opacity:0.009" fill="#fefefe" d="M 74.5,320.5 C 78.6463,319.353 82.9796,319.186 87.5,320C 83.1794,320.499 78.8461,320.666 74.5,320.5 Z"/></g>
<g><path style="opacity:0.008" fill="#fefffe" d="M 146.5,319.5 C 146.631,320.239 146.464,320.906 146,321.5C 145.308,320.563 145.475,319.897 146.5,319.5 Z"/></g>
<g><path style="opacity:0.007" fill="#fefefe" d="M 64.5,321.5 C 64.5,321.167 64.5,320.833 64.5,320.5C 71.1667,320.833 71.1667,321.167 64.5,321.5 Z"/></g>
<g><path style="opacity:0.008" fill="#fefffe" d="M 63.5,321.5 C 63.8333,321.5 64.1667,321.5 64.5,321.5C 64.3147,322.17 63.9813,322.17 63.5,321.5 Z"/></g>
<g><path style="opacity:0.01" fill="#fefffe" d="M 189.5,323.5 C 189.369,322.761 189.536,322.094 190,321.5C 190.692,322.437 190.525,323.103 189.5,323.5 Z"/></g>
<g><path style="opacity:0.008" fill="#fefffe" d="M 57.5,322.5 C 57.1034,323.525 56.4368,323.692 55.5,323C 56.0944,322.536 56.7611,322.369 57.5,322.5 Z"/></g>
<g><path style="opacity:0.008" fill="#fefffe" d="M 61.5,322.5 C 62.1667,322.5 62.8333,322.5 63.5,322.5C 62.8333,323.833 62.1667,323.833 61.5,322.5 Z"/></g>
<g><path style="opacity:0.01" fill="#fefefe" d="M 145.5,324.5 C 144.475,324.103 144.308,323.437 145,322.5C 145.464,323.094 145.631,323.761 145.5,324.5 Z"/></g>
<g><path style="opacity:0.01" fill="#fefffe" d="M 144.5,327.5 C 144.167,327.5 143.833,327.5 143.5,327.5C 143.833,324.833 144.167,324.833 144.5,327.5 Z"/></g>
<g><path style="opacity:0.008" fill="#fefefe" d="M 191.5,328.5 C 191.369,327.761 191.536,327.094 192,326.5C 192.692,327.437 192.525,328.103 191.5,328.5 Z"/></g>
<g><path style="opacity:0.008" fill="#fefefe" d="M 143.5,327.5 C 143.631,328.239 143.464,328.906 143,329.5C 142.308,328.563 142.475,327.897 143.5,327.5 Z"/></g>
<g><path style="opacity:0.01" fill="#fdfefd" d="M 142.5,332.5 C 141.475,332.103 141.308,331.437 142,330.5C 142.464,331.094 142.631,331.761 142.5,332.5 Z"/></g>
<g><path style="opacity:0.007" fill="#fefffe" d="M 198.5,339.5 C 197.833,339.5 197.167,339.5 196.5,339.5C 195.833,339.5 195.5,339.167 195.5,338.5C 196.322,336.45 197.322,336.783 198.5,339.5 Z"/></g>
<g><path style="opacity:0.016" fill="#fdfefd" d="M 198.5,339.5 C 199.833,340.167 199.833,340.167 198.5,339.5 Z"/></g>
<g><path style="opacity:0.009" fill="#fefffe" d="M 200.5,341.5 C 201.601,340.402 202.934,340.235 204.5,341C 203.207,341.49 201.873,341.657 200.5,341.5 Z"/></g>
<g><path style="opacity:0.012" fill="#fefffe" d="M 207.5,342.5 C 207.897,341.475 208.563,341.308 209.5,342C 208.906,342.464 208.239,342.631 207.5,342.5 Z"/></g>
<g><path style="opacity:0.012" fill="#fefffe" d="M 210.5,342.5 C 211.833,343.167 211.833,343.167 210.5,342.5 Z"/></g>
<g><path style="opacity:0.008" fill="#fdfefd" d="M 215.5,346.5 C 214.833,345.167 214.833,345.167 215.5,346.5 Z"/></g>
<g><path style="opacity:0.004" fill="#fefffe" d="M 215.5,346.5 C 216.833,347.167 216.833,347.167 215.5,346.5 Z"/></g>
<g><path style="opacity:0.008" fill="#fefefe" d="M 217.5,351.5 C 217.369,350.761 217.536,350.094 218,349.5C 218.692,350.437 218.525,351.103 217.5,351.5 Z"/></g>
<g><path style="opacity:0.014" fill="#fefffe" d="M 219.5,363.5 C 219.167,363.5 218.833,363.5 218.5,363.5C 218.833,348.833 219.167,348.833 219.5,363.5 Z"/></g>
<g><path style="opacity:0.004" fill="#fefffe" d="M 115.5,355.5 C 116.629,357.628 116.796,359.961 116,362.5C 115.503,360.19 115.337,357.857 115.5,355.5 Z"/></g>
</svg>
